<?xml version="1.0" encoding="UTF-8" standalone="no"?>
<!-- Created with Inkscape (http://www.inkscape.org/) -->

<svg
   xmlns:dc="http://purl.org/dc/elements/1.1/"
   xmlns:cc="http://creativecommons.org/ns#"
   xmlns:rdf="http://www.w3.org/1999/02/22-rdf-syntax-ns#"
   xmlns:svg="http://www.w3.org/2000/svg"
   xmlns="http://www.w3.org/2000/svg"
   xmlns:xlink="http://www.w3.org/1999/xlink"
   xmlns:sodipodi="http://sodipodi.sourceforge.net/DTD/sodipodi-0.dtd"
   xmlns:inkscape="http://www.inkscape.org/namespaces/inkscape"
   width="210mm"
   height="297mm"
   viewBox="0 0 210 297"
   version="1.1"
   id="svg5075"
   inkscape:version="0.92.3 (unknown)"
   sodipodi:docname="bucketbrigade.svg">
  <defs
     id="defs5069">
    <linearGradient
       inkscape:collect="always"
       id="linearGradient5917">
      <stop
         style="stop-color:#ffffff;stop-opacity:1;"
         offset="0"
         id="stop5913" />
      <stop
         style="stop-color:#ffffff;stop-opacity:0;"
         offset="1"
         id="stop5915" />
    </linearGradient>
    <linearGradient
       inkscape:collect="always"
       id="linearGradient5784">
      <stop
         style="stop-color:#1b15c2;stop-opacity:0"
         offset="0"
         id="stop5780" />
      <stop
         style="stop-color:#1b15c2;stop-opacity:0;"
         offset="1"
         id="stop5782" />
    </linearGradient>
    <linearGradient
       inkscape:collect="always"
       id="linearGradient5656">
      <stop
         style="stop-color:#666666;stop-opacity:1;"
         offset="0"
         id="stop5652" />
      <stop
         style="stop-color:#666666;stop-opacity:0;"
         offset="1"
         id="stop5654" />
    </linearGradient>
    <linearGradient
       inkscape:collect="always"
       id="linearGradient5645">
      <stop
         style="stop-color:#f9f9f9;stop-opacity:0.722"
         offset="0"
         id="stop5641" />
      <stop
         style="stop-color:#999999;stop-opacity:0;"
         offset="1"
         id="stop5643" />
    </linearGradient>
    <linearGradient
       inkscape:collect="always"
       xlink:href="#linearGradient5645"
       id="linearGradient5647"
       x1="123.51915"
       y1="116.12365"
       x2="130.48085"
       y2="149.76353"
       gradientUnits="userSpaceOnUse"
       gradientTransform="matrix(0.75695631,-0.20084104,0.33218816,0.49807011,10.486506,82.024692)" />
    <linearGradient
       inkscape:collect="always"
       xlink:href="#linearGradient5656"
       id="linearGradient5658"
       x1="113.59762"
       y1="169.43274"
       x2="103.11419"
       y2="172.26701"
       gradientUnits="userSpaceOnUse" />
    <linearGradient
       inkscape:collect="always"
       xlink:href="#linearGradient5656"
       id="linearGradient5660"
       gradientUnits="userSpaceOnUse"
       x1="99.494286"
       y1="207.67171"
       x2="189.10037"
       y2="198.31726" />
    <radialGradient
       inkscape:collect="always"
       xlink:href="#linearGradient5784"
       id="radialGradient5786"
       cx="16.592817"
       cy="176.69116"
       fx="16.592817"
       fy="176.69116"
       r="27.673132"
       gradientTransform="matrix(1,0,0,0.14981772,0,145.04157)"
       gradientUnits="userSpaceOnUse" />
    <filter
       inkscape:collect="always"
       style="color-interpolation-filters:sRGB"
       id="filter5796"
       x="-0.013347228"
       width="1.0266945"
       y="-0.010899807"
       height="1.0217996">
      <feGaussianBlur
         inkscape:collect="always"
         stdDeviation="1.4235657"
         id="feGaussianBlur5798" />
    </filter>
    <filter
       inkscape:collect="always"
       style="color-interpolation-filters:sRGB"
       id="filter5820"
       x="-0.052601225"
       width="1.1052025"
       y="-0.044138998"
       height="1.088278">
      <feGaussianBlur
         inkscape:collect="always"
         stdDeviation="3.5059534"
         id="feGaussianBlur5822" />
    </filter>
    <filter
       inkscape:collect="always"
       style="color-interpolation-filters:sRGB"
       id="filter5832"
       x="-0.027178339"
       width="1.0543567"
       y="-0.021487204"
       height="1.0429744">
      <feGaussianBlur
         inkscape:collect="always"
         stdDeviation="2.1875857"
         id="feGaussianBlur5834" />
    </filter>
    <filter
       inkscape:collect="always"
       style="color-interpolation-filters:sRGB"
       id="filter5848"
       x="-0.023206496"
       width="1.046413"
       y="-0.02484969"
       height="1.0496994">
      <feGaussianBlur
         inkscape:collect="always"
         stdDeviation="0.019980822"
         id="feGaussianBlur5850" />
    </filter>
    <linearGradient
       inkscape:collect="always"
       xlink:href="#linearGradient5917"
       id="linearGradient5919"
       x1="222.19817"
       y1="168.74838"
       x2="102.41134"
       y2="168.65886"
       gradientUnits="userSpaceOnUse" />
    <linearGradient
       inkscape:collect="always"
       xlink:href="#linearGradient5917"
       id="linearGradient5921"
       gradientUnits="userSpaceOnUse"
       x1="222.19817"
       y1="168.74838"
       x2="102.41134"
       y2="168.65886" />
  </defs>
  <sodipodi:namedview
     id="base"
     pagecolor="#ffffff"
     bordercolor="#666666"
     borderopacity="1.0"
     inkscape:pageopacity="0.0"
     inkscape:pageshadow="2"
     inkscape:zoom="0.49497475"
     inkscape:cx="92.291206"
     inkscape:cy="677.35126"
     inkscape:document-units="mm"
     inkscape:current-layer="layer1"
     showgrid="false"
     inkscape:snap-nodes="false"
     inkscape:window-width="1327"
     inkscape:window-height="744"
     inkscape:window-x="39"
     inkscape:window-y="24"
     inkscape:window-maximized="1" />
  <metadata
     id="metadata5072">
    <rdf:RDF>
      <cc:Work
         rdf:about="">
        <dc:format>image/svg+xml</dc:format>
        <dc:type
           rdf:resource="http://purl.org/dc/dcmitype/StillImage" />
        <dc:title />
      </cc:Work>
    </rdf:RDF>
  </metadata>
  <g
     inkscape:label="Layer 1"
     inkscape:groupmode="layer"
     id="layer1">
    <ellipse
       style="opacity:0.9;fill:#05a7de;fill-opacity:1;stroke:#6d8eb5;stroke-width:1.66999996;stroke-miterlimit:3.79999995;stroke-dasharray:none;stroke-opacity:1"
       id="path5077"
       cx="107.08568"
       cy="134.64366"
       rx="99.974716"
       ry="115.8497" />
    <path
       sodipodi:type="star"
       style="opacity:1;fill:#ffc600;fill-opacity:1;stroke:#000000;stroke-width:0.3405222;stroke-miterlimit:4;stroke-dasharray:none;stroke-opacity:1"
       id="path5878"
       sodipodi:sides="5"
       sodipodi:cx="9.8273811"
       sodipodi:cy="43"
       sodipodi:r1="19.84285"
       sodipodi:r2="9.9214249"
       sodipodi:arg1="0.86630226"
       sodipodi:arg2="1.4946208"
       inkscape:flatsided="false"
       inkscape:rounded="0"
       inkscape:randomized="0"
       d="M 22.678571,58.119047 10.58242,52.892653 -0.58045117,59.894251 0.65222874,46.775083 -9.4562033,38.322174 3.401786,35.440476 8.3173028,23.214694 l 6.7139942,11.338181 13.146389,0.896959 -8.708513,9.889079 z"
       inkscape:transform-center-x="16.191977"
       inkscape:transform-center-y="-7.7629415"
       transform="matrix(4.8567063,0,0,4.3490661,69.182839,-46.079483)" />
    <g
       transform="matrix(0.85254269,-0.21103999,0.21949104,0.81971729,15.264805,45.637284)"
       style="fill:#4d4d4d;fill-opacity:1;stroke-width:1.15844023"
       id="g5895">
      <path
         sodipodi:nodetypes="scccccccs"
         style="opacity:1;fill:#4d4d4d;fill-opacity:1;stroke:none;stroke-width:1.93459511;stroke-miterlimit:3.79999995;stroke-dasharray:none;stroke-opacity:1"
         d="m 106.21116,111.4138 c -31.312326,2e-5 -56.696013,4.67182 -56.69628,10.4348 0.01104,0.98893 0.785838,1.97255 2.301153,2.92134 l 29.448773,99.6588 c 4.841605,3.99966 14.784447,5.81307 26.647434,6.80357 11.0469,-0.65691 19.10451,-3.30669 25.89147,-6.80357 l 25.88997,-99.15235 c 2.10591,-1.10145 3.19243,-2.26014 3.21428,-3.42779 -2.7e-4,-5.76302 -25.38427,-10.43484 -56.6968,-10.4348 z"
         id="path5893"
         inkscape:connector-curvature="0" />
    </g>
    <path
       style="fill:none;stroke:#878787;stroke-width:1.56500006;stroke-linecap:butt;stroke-linejoin:miter;stroke-miterlimit:4;stroke-dasharray:none;stroke-opacity:1"
       d="M 98.538828,125.50626 49.95747,139.90343 c -12.934182,13.42152 -3.665122,20.86549 4.991235,28.47441 l 81.190765,-25.27503"
       id="path5662"
       inkscape:connector-curvature="0"
       sodipodi:nodetypes="cccc" />
    <g
       id="g5650"
       style="fill:url(#linearGradient5658);fill-opacity:1;stroke-width:1.15844023"
       transform="matrix(0.85254269,-0.21103999,0.21949104,0.81971729,-11.571504,-202.69312)">
      <path
         inkscape:connector-curvature="0"
         id="path5622"
         d="m 106.21116,111.4138 c -31.312326,2e-5 -56.696013,4.67182 -56.69628,10.4348 0.01104,0.98893 0.785838,1.97255 2.301153,2.92134 l 29.448773,99.6588 c 4.841605,3.99966 14.784447,5.81307 26.647434,6.80357 11.0469,-0.65691 19.10451,-3.30669 25.89147,-6.80357 l 25.88997,-99.15235 c 2.10591,-1.10145 3.19243,-2.26014 3.21428,-3.42779 -2.7e-4,-5.76302 -25.38427,-10.43484 -56.6968,-10.4348 z"
         style="opacity:1;fill:url(#linearGradient5660);fill-opacity:1;stroke:none;stroke-width:1.93459511;stroke-miterlimit:3.79999995;stroke-dasharray:none;stroke-opacity:1"
         sodipodi:nodetypes="scccccccs" />
    </g>
    <g
       transform="matrix(0.85254269,-0.21103999,0.21949104,0.81971729,15.241875,45.660164)"
       style="fill:url(#linearGradient5919);fill-opacity:1;stroke-width:1.15844023"
       id="g5899">
      <path
         sodipodi:nodetypes="scccccccs"
         style="opacity:1;fill:url(#linearGradient5921);fill-opacity:1;stroke:none;stroke-width:1.93459511;stroke-miterlimit:3.79999995;stroke-dasharray:none;stroke-opacity:1"
         d="m 106.21116,111.4138 c -31.312326,2e-5 -56.696013,4.67182 -56.69628,10.4348 0.01104,0.98893 0.785838,1.97255 2.301153,2.92134 l 29.448773,99.6588 c 4.841605,3.99966 14.784447,5.81307 26.647434,6.80357 11.0469,-0.65691 19.10451,-3.30669 25.89147,-6.80357 l 25.88997,-99.15235 c 2.10591,-1.10145 3.19243,-2.26014 3.21428,-3.42779 -2.7e-4,-5.76302 -25.38427,-10.43484 -56.6968,-10.4348 z"
         id="path5897"
         inkscape:connector-curvature="0" />
    </g>
    <path
       id="path5630"
       style="opacity:1;fill:url(#linearGradient5647);fill-opacity:1;stroke:#000000;stroke-width:1.66999996;stroke-miterlimit:3.79999995;stroke-dasharray:none;stroke-opacity:0"
       d="m 164.13789,110.16123 c -7.41553,0.35576 -21.77566,3.369 -36.45866,7.40967 -21.86755,6.01781 -36.136554,10.75678 -34.414732,13.33843 1.721832,2.58163 19.292702,-1.12773 39.616152,-6.52008 1.97454,-0.5239 3.91241,-1.0476 5.82246,-1.56973 0.0348,-0.083 0.10278,-0.17263 0.21481,-0.26223 l 9.4e-4,-7.4e-4 c 0.23272,-0.18614 0.50355,-0.34228 0.84334,-0.35931 0.0965,-0.005 0.26007,0.0151 0.36321,0.0257 0.14809,-0.002 0.36903,0.0108 0.5094,-0.0198 0.006,-0.002 -0.002,-0.0138 0.004,-0.0162 0.0494,-0.0189 0.10346,-0.0299 0.15521,-0.0449 0.17766,-0.0333 0.15962,-0.0373 0.35306,-0.0405 0.0473,-8.9e-4 0.0965,0.0155 0.14175,0.005 0.0346,-0.008 -0.12288,0.0131 -0.1078,-0.0129 0.0204,-0.0359 0.30335,-0.12064 0.33404,-0.13068 0.11289,-0.0257 0.22502,-0.0206 0.33774,-0.013 0.77032,-0.2148 1.5426,-0.43 2.29516,-0.64334 0.0444,-0.0273 0.0594,-0.0437 0.17951,-0.13469 0.21988,-0.10121 0.45899,-0.11843 0.70215,-0.11841 14.67656,-4.1899 25.54121,-8.03206 24.17666,-10.078 -0.43045,-0.64541 -1.97789,-0.90321 -4.37295,-0.84039 -0.2245,0.006 -0.45643,0.0145 -0.69566,0.0257 z"
       inkscape:connector-curvature="0" />
    <g
       id="g5951"
       transform="matrix(1.2222795,0,0,0.7162665,-33.919136,35.020838)"
       style="stroke-width:1.06875324">
      <path
         sodipodi:nodetypes="cccccc"
         inkscape:connector-curvature="0"
         d="m 437.03348,364.34235 c 42.90059,15.66514 32.90416,60.64032 32.96652,95.80637 -0.0427,50.17354 -18.76826,64.19175 -87.10631,65.64617 14.17286,3.53393 10.93847,4.85495 26.00866,4.89336 72.58669,4.2e-4 133.95544,-50.18791 133.95507,-100.26052 -0.0798,-47.76565 -8.15366,-127.29582 -105.82394,-66.08538 z"
         style="opacity:0.76099997;fill:#2f29e7;fill-opacity:1;stroke:none;stroke-width:9.04756737;stroke-miterlimit:4;stroke-dasharray:none;stroke-opacity:1;filter:url(#filter5820)"
         transform="matrix(0.17408041,0,0,0.19632247,62.769152,20.873583)"
         id="path5671" />
      <path
         sodipodi:nodetypes="ccccccccccccccccccccccccccccccccccccccccccccccccccccccccccccccccccccccccccccccccccccccccccccccccccccccccccccccccccccccccccccccccccc"
         inkscape:connector-curvature="0"
         d="m 434.17633,292.91323 c 65.75775,66.81852 85.76133,55.80253 85.82367,103.17857 -0.0418,67.59489 -72.60773,94.6274 -138.42103,117.80002 -12.00969,22.06227 36.49469,12.6327 47.28626,13.58279 0.17406,-0.49639 0.52969,-1.03341 1.12891,-1.55859 l 0.006,-0.004 c 1.1311,-0.99133 2.42474,-1.80618 3.98047,-1.82617 0.44217,-0.008 1.18013,0.14184 1.64648,0.22461 0.67601,0.0227 1.67849,0.14242 2.33008,0.002 0.0302,-0.008 -0.003,-0.0781 0.0234,-0.0898 0.23282,-0.0956 0.48336,-0.14499 0.72461,-0.2168 0.82254,-0.14665 0.74176,-0.17301 1.625,-0.14844 0.21581,0.008 0.43435,0.10811 0.64453,0.0586 0.16101,-0.0378 -0.56543,0.0494 -0.48633,-0.0957 0.10696,-0.19653 1.42861,-0.60876 1.57227,-0.6582 0.98498,-0.22261 1.91782,0.16149 2.90625,0.0977 0.3767,0.0428 0.78986,-0.063 1.18164,-0.0664 0.29547,-0.18118 1.17894,-0.33185 1.40039,-0.37695 0.64339,-0.51311 1.74163,-0.2911 2.49414,-0.63477 0.0487,-0.0227 0.0178,-0.10491 0.0254,-0.1582 0.47422,-0.26041 0.817,-0.76798 1.35547,-0.92188 0.42346,-0.12094 0.87582,-0.0977 1.31055,-0.16797 0.17232,-0.0264 0.33348,-0.11184 0.5039,-0.15039 -0.0601,-0.002 -0.23115,0.0302 -0.18164,-0.004 0.24718,-0.17235 0.53751,-0.2736 0.79883,-0.42383 0.97935,-0.56239 0.46618,-0.28842 1.32617,-1.00195 1.81761,-0.90554 3.8029,-0.38736 5.73242,-0.36914 0.30302,-0.0507 0.62198,-0.0203 0.93164,-0.0313 -0.0185,-0.007 -0.041,-0.0107 -0.041,-0.0273 1.5e-4,-0.11263 0.19502,-0.11789 0.30273,-0.15039 0.3326,-0.10016 0.6741,-0.16408 1.01172,-0.24609 0.78663,-0.0801 1.5681,0.025 2.35156,0.0703 0.14929,0.008 0.30093,0.049 0.44727,0.0195 0.0771,-0.0151 -0.11342,-0.10945 -0.16406,-0.16992 0.70272,-0.61327 1.44883,-0.76342 2.36718,-0.68945 0.19049,0.0151 0.36566,0.14591 0.55664,0.14062 0.0537,-10e-4 -0.0929,-0.13206 -0.0449,-0.15625 0.18898,-0.0952 0.41443,-0.0894 0.6211,-0.13476 1.01782,-0.30388 2.05507,-0.0664 3.08593,-0.0664 -0.0382,-0.0265 -0.14692,-0.048 -0.11328,-0.0801 0.0949,-0.0903 0.23579,-0.11197 0.35938,-0.1543 0.89423,-0.30538 1.76422,-0.23448 2.68359,-0.13281 0.80474,0.0495 -0.0573,0.0722 0.38086,-0.10547 0.20939,-0.0847 0.44938,-0.0849 0.65234,-0.18359 0.0915,-0.0442 0.12055,-0.16433 0.19727,-0.23047 0.19616,-0.16932 0.40232,-0.32782 0.61719,-0.47266 0.2366,-0.15911 0.48957,-0.29157 0.73437,-0.4375 0.11112,-0.0669 0.21153,-0.15884 0.33399,-0.20117 0.36548,-0.12661 0.74616,-0.20711 1.12109,-0.30273 0.16743,-0.0427 0.35124,-0.0339 0.50586,-0.11133 0.0937,-0.0461 0.1184,-0.17441 0.20117,-0.23828 0.48061,-0.36888 0.76859,-0.45004 1.33008,-0.69336 0.53851,-0.36473 1.07997,-0.24246 1.68945,-0.32031 0.0265,-0.004 0.0409,-0.0532 0.0273,-0.0781 -0.0151,-0.034 -0.12179,-0.0338 -0.0957,-0.0625 0.11452,-0.12057 0.2772,-0.18392 0.41602,-0.27539 0.99519,-0.18822 1.78547,-1.06308 2.73633,-1.33789 0.99964,-0.28876 1.07294,0.20129 1.00586,-0.17969 0.38664,-0.43453 1.03469,-0.39197 1.52539,-0.59179 0.034,-0.0151 -0.0807,-0.0606 -0.0645,-0.0957 0.0469,-0.10356 0.13882,-0.18298 0.22461,-0.25781 0.18255,-0.15874 0.38387,-0.29285 0.57618,-0.43945 1.02606,-0.38457 2.04294,-0.57991 3.13281,-0.58399 0.17575,-6.8e-4 0.35311,0.0426 0.52734,0.0195 0.0416,-0.008 -0.0644,-0.0524 -0.0976,-0.0781 0.53732,-0.21413 1.09362,-0.32222 1.67187,-0.32617 -0.062,-0.0293 0.097,-0.10077 0.4668,-0.33789 1.05407,-0.93328 2.4249,-1.19095 3.78515,-1.04688 0.37115,0.0401 0.94697,0.11432 1.1875,-0.28515 0.1886,-0.31333 -0.83385,0.13519 0.26758,-0.4043 0.46923,-0.2298 0.97383,-0.37747 1.46094,-0.56641 0.27666,-0.0302 0.55281,-0.0676 0.83008,-0.0918 0.34507,-0.0302 0.69385,-0.0223 1.03711,-0.0703 0.55185,-0.076 1.07072,-0.34781 1.62695,-0.40039 0.23093,-0.0227 0.4634,-0.008 0.69531,-0.0156 0.15988,0.0189 0.32007,0.0737 0.48047,0.0586 0.0862,-0.008 -0.28622,-0.002 -0.24805,-0.0801 0.0544,-0.11112 0.24908,-0.0567 0.34961,-0.1289 0.0507,-0.0378 0.0269,-0.1303 0.0723,-0.17188 0.5421,-0.48227 1.03251,-0.62433 1.7168,-0.9375 0.40596,-0.12586 0.80524,-0.27113 1.21679,-0.37695 0.33903,-0.0873 0.69113,-0.12036 1.03125,-0.20313 0.48537,-0.11792 0.8436,-0.5962 1.24805,-0.84179 0.32239,-0.19578 0.672,-0.34235 1.00781,-0.51368 0.72454,-0.28006 1.27877,-0.80057 1.93164,-1.22656 0.65518,-0.40785 -0.008,-0.0236 1.05664,-0.5039 0.85191,-0.38593 1.23311,-0.45594 2.17969,-0.40821 -0.0189,-0.0302 -0.0873,-0.0724 -0.0566,-0.0879 1.26981,-0.65193 -0.2342,0.36416 0.90234,-0.32031 0.41983,-0.25285 0.0501,-0.10476 0.34375,-0.375 0.1663,-0.15307 0.35238,-0.2812 0.5293,-0.42188 1.15011,-0.17688 2.16844,-0.86371 3.33008,-0.98046 0.25172,-0.0265 0.50663,-0.003 0.75976,-0.004 0.062,-0.0302 0.12395,-0.06 0.18555,-0.0898 0.0677,-0.0541 0.12678,-0.12016 0.20313,-0.16211 0.42432,-0.23396 1.25321,-0.61974 1.7207,-0.75391 0.68357,-0.19616 1.1849,-0.11865 0.78125,-0.17383 0.23357,-0.0499 0.46748,-0.1005 0.70117,-0.15039 0.22375,-0.0151 0.45089,-0.006 0.67188,-0.0449 0.0503,-0.008 -0.1839,-0.009 -0.14649,-0.0449 0.14172,-0.12952 0.41083,-0.19736 0.70313,-0.2461 28.03868,-23.11632 44.12334,-56.25847 44.20898,-91.09179 -0.0791,-64.3508 -22.43886,-180.46407 -170.10965,-174.60714 z m 54.57758,222.13755 c -0.23699,0.0956 -0.47416,0.2027 -0.71485,0.34375 -0.24718,0.0522 -0.49068,0.13282 -0.74218,0.15625 -0.0472,0.004 0.11642,-0.0496 0.10546,-0.0957 -0.0113,-0.0427 -0.0927,-0.0344 -0.13086,-0.0117 -0.62951,0.35641 -1.17742,0.88665 -1.92773,1 -0.25541,0.16795 -0.57128,0.36835 -0.875,0.54492 0.38588,-0.11347 0.78204,-0.20332 1.48633,-0.23828 0.9103,-0.045 0.68983,0.2568 0.89453,-0.0762 0.0113,-0.003 0.54083,-0.016 0.57031,-0.23828 0.003,-0.0227 -0.0349,-0.0449 -0.0273,-0.0664 0.10582,-0.24302 0.27444,-0.46199 0.46875,-0.64258 0.25663,-0.23886 0.5521,-0.43221 0.82812,-0.64844 0.0259,-0.006 0.0404,-0.0201 0.0645,-0.0273 z m -5.66407,2.26953 c 0.0275,-0.0251 -0.0727,0.0181 -0.4707,0.21094 -0.38385,0.0265 0.0233,-0.0199 -0.76172,0.41406 -0.11581,0.0641 -0.31818,0.17162 -0.48437,0.26563 0.0249,0.003 0.0494,3.9e-4 0.0742,0.004 0.0894,-0.0268 0.17761,-0.0553 0.26757,-0.082 0.003,-0.005 7.5e-4,-0.0135 0.006,-0.0156 0.0831,-0.0334 0.17269,-0.047 0.25977,-0.0684 0.2824,-0.0888 0.56096,-0.18698 0.82031,-0.32227 0.0597,-0.0312 0.10888,-0.0799 0.16016,-0.125 -0.60864,0.16781 0.0665,-0.22411 0.1289,-0.28125 z"
         style="opacity:0.80899999;fill:#140fbb;fill-opacity:1;stroke:none;stroke-width:9.04756737;stroke-miterlimit:4;stroke-dasharray:none;stroke-opacity:1;filter:url(#filter5832)"
         transform="matrix(0.17408041,0,0,0.19632247,62.769152,20.873583)"
         id="path5664" />
      <path
         sodipodi:nodetypes="ccccccccccccccccccccccccccccccccccccccccccccccccccccccccccccccccccccccccccccccccccccccccccccccccccccccccccccccccccccccccccccccccccccccccccccccccccccccccccccccccccccccccccccccccccccccccacccccc"
         inkscape:connector-curvature="0"
         d="m 432.59626,238.62724 c 85.81445,2.92146 145.31798,97.42873 117.50111,134.66461 -0.0529,71.95015 -32.19468,148.59473 -118.87792,150.68035 17.97748,5.06721 17.24127,-11.50728 36.35672,-11.45267 6.87964,5e-5 13.65758,-0.33625 20.31836,-0.96875 0.25745,-0.0619 0.52253,-0.10304 0.75391,-0.19726 0.034,-0.0151 -0.0807,-0.0606 -0.0645,-0.0957 0.0469,-0.10356 0.13882,-0.18298 0.22461,-0.25781 0.18255,-0.15874 0.38387,-0.29285 0.57618,-0.43945 1.02606,-0.38457 2.04294,-0.57991 3.13281,-0.58399 0.17575,-6.8e-4 0.35311,0.0426 0.52734,0.0195 0.0416,-0.008 -0.0644,-0.0524 -0.0976,-0.0781 0.53732,-0.21413 1.09362,-0.32222 1.67187,-0.32617 -0.062,-0.0293 0.097,-0.10077 0.4668,-0.33789 1.05407,-0.93328 2.4249,-1.19095 3.78515,-1.04688 0.37115,0.0401 0.94697,0.11432 1.1875,-0.28515 0.1886,-0.31333 -0.83385,0.13519 0.26758,-0.4043 0.46923,-0.2298 0.97383,-0.37747 1.46094,-0.56641 0.27666,-0.0302 0.55281,-0.0676 0.83008,-0.0918 0.34507,-0.0302 0.69385,-0.0223 1.03711,-0.0703 0.55185,-0.076 1.07072,-0.34781 1.62695,-0.40039 0.23093,-0.0227 0.4634,-0.008 0.69531,-0.0156 0.15988,0.0189 0.32007,0.0737 0.48047,0.0586 0.0862,-0.008 -0.28622,-0.002 -0.24805,-0.0801 0.0544,-0.11112 0.24908,-0.0567 0.34961,-0.1289 0.0507,-0.0378 0.0269,-0.1303 0.0723,-0.17188 0.5421,-0.48227 1.03251,-0.62433 1.7168,-0.9375 0.40596,-0.12586 0.80524,-0.27113 1.21679,-0.37695 0.33903,-0.0873 0.69113,-0.12036 1.03125,-0.20313 0.48537,-0.11792 0.8436,-0.5962 1.24805,-0.84179 0.32239,-0.19578 0.672,-0.34235 1.00781,-0.51368 0.72454,-0.28006 1.27877,-0.80057 1.93164,-1.22656 0.65518,-0.40785 -0.008,-0.0236 1.05664,-0.5039 0.85191,-0.38593 1.23311,-0.45594 2.17969,-0.40821 -0.0189,-0.0302 -0.0873,-0.0724 -0.0566,-0.0879 1.26981,-0.65193 -0.2342,0.36416 0.90234,-0.32031 0.41983,-0.25285 0.0501,-0.10476 0.34375,-0.375 0.1663,-0.15307 0.35238,-0.2812 0.5293,-0.42188 1.15011,-0.17688 2.16844,-0.86371 3.33008,-0.98046 0.25172,-0.0265 0.50663,-0.003 0.75976,-0.004 0.062,-0.0302 0.12395,-0.06 0.18555,-0.0898 0.0677,-0.0541 0.12678,-0.12016 0.20313,-0.16211 0.42432,-0.23396 1.25321,-0.61974 1.7207,-0.75391 0.68357,-0.19616 1.1849,-0.11865 0.78125,-0.17383 0.23357,-0.0499 0.46748,-0.1005 0.70117,-0.15039 0.22375,-0.0151 0.45089,-0.006 0.67188,-0.0449 0.0503,-0.008 -0.1839,-0.009 -0.14649,-0.0449 0.37841,-0.34583 1.57878,-0.33267 2.07813,-0.33985 0.0661,-0.0302 0.13307,-0.0624 0.19922,-0.0937 0.002,-0.0378 -0.0189,-0.084 0.004,-0.10937 0.21657,-0.21354 1.2324,-1.02743 1.45313,-1.10352 0.44504,-0.15345 0.92459,-0.17958 1.38672,-0.26953 0.3418,-0.0906 0.69353,-0.11531 1.04297,-0.15429 -0.18046,0.0191 -0.41391,0.0402 -0.4043,0.0176 0.0488,-0.11905 0.15809,-0.20459 0.23633,-0.30664 0.93698,-1.09746 2.14945,-0.88031 3.38086,-1.13086 0.0404,-0.008 0.0419,-0.0798 0.0801,-0.0957 0.2041,-0.0854 0.42012,-0.1339 0.63086,-0.20117 0.48516,-0.0868 0.62975,-0.11822 0.78125,-0.12891 0.35695,-0.38429 1.00024,-0.56367 1.41993,-0.73242 0.17912,-0.048 0.36132,-0.0836 0.5371,-0.14258 0.46806,-0.15723 0.98465,-0.33749 1.40625,-0.57031 0.38453,-0.21241 0.58684,-0.18498 0.36329,-0.20313 0.32579,-0.55434 1.23836,-0.82885 1.80468,-0.90429 0.19926,-0.0265 0.4005,10e-4 0.60157,0.0234 -0.0227,-0.009 -0.0496,-0.0158 -0.0586,-0.0313 -0.0435,-0.0748 0.16131,-0.06 0.24219,-0.0898 1.51461,-0.36246 -0.45136,0.0759 1.23242,-0.1875 0.0971,-0.0151 -0.38283,0.0377 -0.29492,-0.008 0.67593,-0.336 1.50877,-0.34886 2.24219,-0.36133 -0.10167,-0.008 -0.39335,0.0391 -0.30664,-0.0176 0.19162,-0.11867 0.43844,-0.11367 0.64843,-0.19531 0.36322,-0.14135 0.0303,-0.0741 0.25782,-0.25586 0.25058,-0.20145 0.53102,-0.36383 0.79101,-0.55273 0.59057,-0.36801 1.21571,-0.46743 1.86914,-0.42188 v -0.002 c 0.11868,-0.18255 0.42389,-0.1058 0.63086,-0.17383 0.19276,-0.0635 0.37713,-0.14776 0.56641,-0.2207 0.24038,-0.0752 0.48148,-0.15129 0.72265,-0.22461 0.41103,-0.1251 0.86798,-0.19568 1.22461,-0.46289 0.0378,-0.0265 0.0393,-0.0842 0.0586,-0.12696 0.28989,-0.15911 0.55695,-0.36962 0.86914,-0.47851 0.33827,-0.11792 0.70435,-0.12835 1.05664,-0.19336 0.0113,-0.0151 0.0163,-0.0384 0.0352,-0.043 0.25245,-0.085 0.40287,-0.0562 0.61328,-0.21875 0.11452,-0.0884 0.19407,-0.21587 0.30859,-0.30469 0.35036,-0.27175 0.73314,-0.50172 1.08789,-0.76758 0.38952,-0.12548 0.64719,-0.4568 0.99219,-0.65039 0.28497,-0.15987 0.63267,-0.2239 0.87305,-0.44531 0.0151,-0.0151 0.008,-0.0417 0.008,-0.0625 0.20938,-0.13266 0.41775,-0.26378 0.62695,-0.39648 0.0873,-0.0578 0.16994,-0.12734 0.26367,-0.17383 1.00044,-0.49262 0.54007,-0.22974 1.81446,-0.4375 0.0661,-0.0113 0.11972,-0.0613 0.18359,-0.082 0.37867,-0.12435 0.56561,-0.10717 0.24023,-0.11133 0.85342,-0.14211 1.33366,-0.77828 2.05079,-1.14649 0.23468,-0.12054 0.48036,-0.21769 0.7207,-0.32617 0.034,-0.0265 0.0642,-0.0604 0.10351,-0.0781 0.20221,-0.0899 0.41815,-0.15117 0.61914,-0.24414 0.13531,-0.0627 0.17644,-0.24429 0.28907,-0.3418 0.21921,-0.19011 0.43916,-0.38188 0.6914,-0.52539 0.29972,-0.17046 0.63422,-0.27218 0.95118,-0.4082 0.1058,-0.0378 0.2216,-0.0562 0.31835,-0.11328 0.0461,-0.0265 -0.20053,0.0508 -0.1582,0.0176 0.47475,-0.36812 1.05913,-0.5415 1.55274,-0.87304 0.36548,-0.48117 1.15594,-0.72706 1.71289,-0.79297 0.166,-0.0194 0.33303,-9.7e-4 0.5,0.0195 -0.004,-0.007 -0.0256,-0.0103 -0.0156,-0.0195 0.15421,-0.1406 0.40465,-0.0962 0.60742,-0.14453 0.44493,-0.43722 1.88078,-0.64964 2.10547,-1.05469 0.48098,-0.68523 1.33992,-1.12665 2.11914,-1.39258 0.61765,-0.2109 0.928,-0.15966 0.58399,-0.20312 -0.0302,-0.004 -0.10828,0.005 -0.0859,-0.0137 0.55835,-0.4789 1.57921,-1.15908 2.23828,-1.36132 0.32806,-0.10054 0.68106,-0.0886 1.02149,-0.13282 0.26794,0.0265 0.53543,0.078 0.80468,0.0742 0.0302,-4.5e-4 -0.0663,-0.0701 -0.0391,-0.0859 0.1062,-0.0627 0.23528,-0.0709 0.35547,-0.0996 0.0324,-0.008 0.0649,-0.0133 0.0977,-0.0195 0.49359,-0.71404 1.4147,-1.34558 2.32032,-1.53906 0.28119,-0.0601 0.57292,-0.0508 0.85937,-0.0762 0.24681,0.0227 0.49272,0.072 0.74024,0.0645 0.034,-0.001 -0.0902,-0.0598 -0.0645,-0.084 0.0502,-0.0473 0.19582,-0.12332 0.2461,-0.125 0.0168,-5.6e-4 0.0233,0.006 0.0117,0.0254 -0.35415,0.60707 -0.80438,1.15265 -1.20703,1.72851 -0.0678,0.097 -0.0992,0.15894 -0.14649,0.23633 30.04332,-23.51175 75.77753,-63.07036 75.77763,-98.887 C 661.3274,306.86808 514.53001,157.32292 432.59626,238.62724 Z m 150.70452,235.30831 c 0.0661,-0.0227 -0.14316,-0.0147 -0.20703,0.0117 -0.0245,0.0107 -0.0436,0.0311 -0.0664,0.0449 0.0921,-0.0159 0.18456,-0.0288 0.27344,-0.0566 z m -4.4668,5.35156 c -0.0901,0.0448 -0.2072,0.14168 -0.32812,0.25 0.11588,-0.0806 0.23598,-0.15742 0.35156,-0.23828 -0.008,-0.005 -0.0156,-0.0156 -0.0234,-0.0117 z m -2.39062,1.54883 c -0.0475,0.0231 -0.0901,0.0536 -0.13672,0.0781 0.0169,0.0301 0.024,0.0608 0.0273,0.0918 0.0545,-0.0366 0.1116,-0.0707 0.16602,-0.10742 -0.0191,0.007 -0.0376,0.0158 -0.0566,0.0234 -1.5e-4,-0.0302 0.0269,-0.0988 0,-0.0859 z m -2.60742,1.79297 c -0.21149,0.11476 -0.38177,0.22517 -0.51367,0.33203 0.1719,-0.11023 0.34234,-0.22129 0.51367,-0.33203 z m -3.77344,1.05664 c -0.0458,0.0377 -0.0415,0.0317 -0.10352,0.082 -0.13272,0.10772 -0.12451,0.10465 -0.21484,0.18164 0.33725,-0.0706 0.55338,-0.12317 0.21875,-0.11914 0.0296,-0.0509 0.0683,-0.0949 0.0996,-0.14453 z m -18.2793,8.50195 c -0.0205,0.0146 -0.0472,0.0355 -0.0684,0.0508 -0.0353,0.0592 -0.16001,0.17578 0.0684,-0.0508 z m 0.87891,0.0703 c -0.3935,0.0728 -0.79018,0.13623 -1.1875,0.1836 -0.007,8.7e-4 -0.009,-0.007 -0.0195,-0.01 -0.34346,0.25746 -0.7135,0.541 -1.00781,0.7207 -0.004,0.003 -0.009,0.003 -0.0137,0.006 0.06,-0.005 0.12039,-0.005 0.17969,-0.0156 0.0227,-0.004 -0.0626,-0.0422 -0.043,-0.0547 0.0949,-0.0593 0.20938,-0.0767 0.31446,-0.11523 0.20371,-0.034 1.04637,-0.1457 1.35546,-0.28516 0.4752,-0.21468 0.0408,-0.0786 0.27735,-0.3125 0.0441,-0.0435 0.0975,-0.0769 0.14453,-0.11719 z m -4.7168,1.63477 c -0.56141,0.05 -1.08357,0.30111 -1.63672,0.3418 -0.6797,0.23114 -0.61519,0.21993 -1.43554,0.30078 -0.0629,0.0648 -0.12904,0.12604 -0.19336,0.18945 -0.14008,0.0929 -0.28746,0.17098 -0.43164,0.25586 0.38251,0.006 0.76526,0.0303 1.14648,0.043 1.31693,-0.50885 -0.25151,0.0632 1.41992,-0.41797 0.0302,-0.008 0.0798,-0.0461 0.0606,-0.0703 -0.0265,-0.034 -0.16015,0.0109 -0.125,-0.0117 0.3103,-0.19557 0.78998,-0.43229 1.19531,-0.63086 z m -2.74804,0.32226 c -0.0681,0.0586 -0.12774,0.12615 -0.19141,0.18946 0.0565,-0.0327 0.11591,-0.0619 0.16602,-0.10352 0.0227,-0.0189 0.0473,-0.10563 0.0254,-0.0859 z m -2.84766,4.48828 c -0.0257,-10e-4 -0.048,0.004 -0.0742,0.002 -0.0301,0.0247 -0.04,0.0312 -0.0684,0.0547 0.0477,-0.0187 0.0949,-0.038 0.14258,-0.0566 z"
         style="opacity:0.79500002;fill:#0000ba;fill-opacity:1;stroke:none;stroke-width:9.21049786;stroke-miterlimit:4;stroke-dasharray:none;stroke-opacity:0;filter:url(#filter5796)"
         transform="matrix(0.17408041,0,0,0.18943811,62.769152,24.489797)"
         id="path5669" />
    </g>
    <path
       style="opacity:0.85700001;fill:#1b15c2;fill-opacity:1;stroke:none;stroke-width:1.56500006;stroke-miterlimit:4;stroke-dasharray:none;stroke-opacity:1"
       d="m 161.82927,118.33487 c 0.0831,1.20678 -7.31362,9.35693 -11.6182,9.77772 -4.30458,0.42078 -14.23165,-2.73626 -14.31481,-3.94305 -0.0832,-1.20677 23.95561,-10.25046 28.26018,-10.67124 4.30459,-0.42078 -2.41033,3.62979 -2.32717,4.83657 z"
       id="path5761"
       inkscape:connector-curvature="0"
       sodipodi:nodetypes="sssss" />
    <path
       style="opacity:0.43700005;fill:#1b15c2;fill-opacity:1;stroke:none;stroke-width:1.56500006;stroke-miterlimit:4;stroke-dasharray:none;stroke-opacity:1"
       d="m 152.60708,132.85139 c -0.37303,1.39977 0.20561,1.85805 -1.088,3.64599 -1.01384,1.15689 -2.14492,-2.21116 -2.14492,-3.29542 1.78559,-5.01319 1.45073,-1.46051 1.67863,-2.3138 0.85841,-0.0413 0.24869,0.78415 1.55429,1.96323 z"
       id="path5764"
       inkscape:connector-curvature="0"
       sodipodi:nodetypes="ccccc" />
    <path
       style="opacity:0.48699999;fill:#1b15c2;fill-opacity:1;stroke:none;stroke-width:1.56499994;stroke-miterlimit:4;stroke-dasharray:none;stroke-opacity:1"
       d="m 156.5331,144.33453 c 0.88384,4.23484 -1.27151,3.33277 -2.4416,1.12494 -0.6695,-1.26328 -0.81502,-2.8397 -0.81502,-4.44673 0,-1.60703 0.0447,-1.43213 0.85898,-0.28209 0.81431,1.15003 2.07117,2.0396 2.39764,3.60388 z"
       id="path5768"
       inkscape:connector-curvature="0"
       sodipodi:nodetypes="sssss" />
    <path
       sodipodi:nodetypes="sssss"
       inkscape:connector-curvature="0"
       id="path5774"
       d="m 159.02812,151.11076 c 0.36785,1.93203 -0.52922,1.52048 -1.01623,0.51322 -0.27865,-0.57633 -0.33921,-1.29553 -0.33921,-2.02869 0,-0.73316 0.0186,-0.65336 0.35751,-0.1287 0.33893,0.52467 0.86204,0.93051 0.99793,1.64417 z"
       style="opacity:0.5270004;fill:#1b15c2;fill-opacity:1;stroke:none;stroke-width:1.56500006;stroke-miterlimit:4;stroke-dasharray:none;stroke-opacity:1" />
    <path
       style="opacity:0.90700001;fill:#1b15c2;fill-opacity:1;stroke:none;stroke-width:2.23983932;stroke-miterlimit:4;stroke-dasharray:none;stroke-opacity:1;filter:url(#filter5848)"
       d="m 155.06655,181.65712 c 0.89722,1.16538 0.0692,1.2004 -0.62819,0.69498 -0.39905,-0.2892 -0.67362,-0.74943 -0.90551,-1.23996 -0.23188,-0.49054 -0.19216,-0.44359 0.23741,-0.20981 0.42959,0.23378 0.96488,0.32432 1.29629,0.75479 z"
       id="path5776"
       inkscape:connector-curvature="0"
       sodipodi:nodetypes="sssss"
       transform="matrix(0.65794172,0,0,0.74200621,62.769152,20.873583)" />
  </g>
</svg>
