<?xml version="1.0" encoding="UTF-8" standalone="no"?>
<!-- Created with Inkscape (http://www.inkscape.org/) -->

<svg
   xmlns:dc="http://purl.org/dc/elements/1.1/"
   xmlns:cc="http://creativecommons.org/ns#"
   xmlns:rdf="http://www.w3.org/1999/02/22-rdf-syntax-ns#"
   xmlns:svg="http://www.w3.org/2000/svg"
   xmlns="http://www.w3.org/2000/svg"
   xmlns:xlink="http://www.w3.org/1999/xlink"
   xmlns:sodipodi="http://sodipodi.sourceforge.net/DTD/sodipodi-0.dtd"
   xmlns:inkscape="http://www.inkscape.org/namespaces/inkscape"
   width="210mm"
   height="297mm"
   viewBox="0 0 210 297"
   version="1.1"
   id="svg8"
   inkscape:version="0.92.3 (unknown)"
   sodipodi:docname="recruit.svg">
  <defs
     id="defs2">
    <linearGradient
       inkscape:collect="always"
       id="linearGradient5028">
      <stop
         style="stop-color:#ececec;stop-opacity:1;"
         offset="0"
         id="stop5024" />
      <stop
         style="stop-color:#ececec;stop-opacity:0;"
         offset="1"
         id="stop5026" />
    </linearGradient>
    <marker
       inkscape:stockid="Arrow1Lstart"
       orient="auto"
       refY="0.0"
       refX="0.0"
       id="Arrow1Lstart"
       style="overflow:visible"
       inkscape:isstock="true">
      <path
         id="path4619"
         d="M 0.0,0.0 L 5.0,-5.0 L -12.5,0.0 L 5.0,5.0 L 0.0,0.0 z "
         style="fill-rule:evenodd;stroke:none;stroke-width:1pt;stroke-opacity:1;fill:#000080;fill-opacity:1"
         transform="scale(0.8) translate(12.5,0)" />
    </marker>
    <radialGradient
       inkscape:collect="always"
       xlink:href="#linearGradient5028"
       id="radialGradient5032"
       cx="102.65094"
       cy="128.35704"
       fx="102.65094"
       fy="128.35704"
       r="58.775295"
       gradientTransform="matrix(0.89264583,3.2933374e-7,-3.9622044e-7,1.0294414,15.555769,20.455026)"
       gradientUnits="userSpaceOnUse" />
    <filter
       inkscape:collect="always"
       style="color-interpolation-filters:sRGB"
       id="filter5046"
       x="-0.035710611"
       width="1.0714212"
       y="-0.036294117"
       height="1.0725882">
      <feGaussianBlur
         inkscape:collect="always"
         stdDeviation="1.7490848"
         id="feGaussianBlur5048" />
    </filter>
  </defs>
  <sodipodi:namedview
     id="base"
     pagecolor="#ffffff"
     bordercolor="#666666"
     borderopacity="1.0"
     inkscape:pageopacity="0.0"
     inkscape:pageshadow="2"
     inkscape:zoom="0.7"
     inkscape:cx="299.93705"
     inkscape:cy="634.60003"
     inkscape:document-units="mm"
     inkscape:current-layer="layer1"
     showgrid="false"
     inkscape:window-width="1327"
     inkscape:window-height="744"
     inkscape:window-x="39"
     inkscape:window-y="24"
     inkscape:window-maximized="1" />
  <metadata
     id="metadata5">
    <rdf:RDF>
      <cc:Work
         rdf:about="">
        <dc:format>image/svg+xml</dc:format>
        <dc:type
           rdf:resource="http://purl.org/dc/dcmitype/StillImage" />
        <dc:title></dc:title>
      </cc:Work>
    </rdf:RDF>
  </metadata>
  <g
     inkscape:label="Layer 1"
     inkscape:groupmode="layer"
     id="layer1">
    <ellipse
       style="opacity:1;fill:#999999;fill-opacity:1;stroke:#000000;stroke-width:1.16999997;stroke-miterlimit:3.8;stroke-dasharray:none;stroke-opacity:1"
       id="path5020"
       cx="107.58323"
       cy="142.02615"
       rx="94.872017"
       ry="94.494049" />
    <ellipse
       style="opacity:0.97000002;fill:url(#radialGradient5032);fill-opacity:1;stroke:none;stroke-width:0.04788288;stroke-miterlimit:4;stroke-dasharray:none;filter:url(#filter5046)"
       id="path5022"
       cx="110.936"
       cy="155.25893"
       rx="58.775295"
       ry="57.830357"
       transform="matrix(1.4704382,0,0,1.4534117,-53.273431,-65.482517)" />
    <g
       id="g4971"
       transform="matrix(0.8760482,0,0,1,150.89555,52.160714)"
       style="stroke-width:1.06840527">
      <path
         sodipodi:nodetypes="ccccccc"
         inkscape:connector-curvature="0"
         id="path4608"
         d="m -62.844004,59.98696 c 17.587022,13.664365 40.511756,18.763582 40.543631,40.52719 7.3e-5,31.42833 -26.822404,56.90601 -59.909521,56.90585 -11.733552,-0.0139 -23.204496,-3.30041 -32.989206,-9.45155 12.95401,11.87101 31.050271,18.61393 49.997985,18.62995 37.888361,1.8e-4 68.6030534,-26.36778 68.6030483,-58.89437 C 3.3631391,78.242159 -28.832845,63.9209 -62.844004,59.98696 Z"
         style="opacity:0.34200003;fill:#0000ff;fill-opacity:1;stroke:none;stroke-width:0.28268221" />
      <path
         sodipodi:nodetypes="ccccccc"
         style="opacity:0.79799996;fill:#000080;fill-opacity:1;stroke:none;stroke-width:0.28268221"
         d="m -41.299362,59.231008 c 14.563214,17.066151 32.9522327,16.873701 32.9841081,38.637309 7.44e-5,31.428323 -26.8224031,56.906013 -59.9095211,56.905853 -11.733552,-0.0139 -23.204496,-3.30041 -32.989205,-9.45155 12.954014,11.87101 31.050271,18.61393 49.997984,18.62995 37.888361,1.8e-4 68.603053,-26.36778 68.603048,-58.89437 C 17.34826,75.596328 -6.1542724,60.141138 -41.299362,59.231008 Z"
         id="path4613"
         inkscape:connector-curvature="0" />
      <path
         sodipodi:nodetypes="ccccccc"
         style="opacity:0.83800001;fill:#00ffff;fill-opacity:1;stroke:none;stroke-width:0.28268221"
         d="m -32.586924,82.662005 c 17.852034,6.22593 22.01473,25.267035 12.592928,45.189755 -26.836252,-21.37282 -23.988126,23.66083 -52.646459,23.66072 -10.16299,-0.009 -20.098522,-2.16146 -28.573525,-6.18986 11.220091,7.77437 26.894124,12.19034 43.305646,12.20083 32.816925,1.2e-4 59.4203908,-17.26837 59.420384,-38.57016 C 1.4784486,99.658593 -3.1282308,85.238358 -32.586924,82.662005 Z"
         id="path4615"
         inkscape:connector-curvature="0" />
      <path
         inkscape:connector-curvature="0"
         id="path4617"
         d="m -29.234862,42.30732 a 72.892323,59.475178 0 0 1 41.051969,53.418308 72.892323,59.475178 0 0 1 -72.892692,59.475312 72.892323,59.475178 0 0 1 -40.138395,-9.87832 83.469769,61.553607 0 0 0 60.833197,19.47115 83.469769,61.553607 0 0 0 83.470221,-61.55362 83.469769,61.553607 0 0 0 -72.3243,-60.93283 z"
         style="opacity:1;fill:#000080;fill-opacity:1;stroke:none;stroke-width:0.07478836;stroke-miterlimit:4;stroke-dasharray:none;marker-mid:url(#Arrow1Lstart)" />
    </g>
    <path
       style="fill:#000000;fill-opacity:1;stroke:none;stroke-width:0.28731248"
       d="m 110.88764,89.261936 -6.50193,3.474723 -3.6127,29.410091 H 64.539056 c -0.860954,-1.99638 -2.981875,-2.08286 -5.345408,-2.08515 -3.173662,-2e-5 -5.746433,2.33369 -5.74642,5.21209 -1.3e-5,2.8784 2.572758,5.2116 5.74642,5.21157 2.360435,-5.3e-4 4.480467,-0.0927 5.345408,-2.08463 H 100.0051 l -0.001,0.007 2.28254,79.14711 C 74.360368,205.83842 49.828819,192.15485 36.892166,171.85276 l 4.392498,0.0765 c -4.721994,-4.1607 -6.67159,-7.73397 -5.51491,-19.90628 -7.295472,10.48269 -7.993531,18.38493 -6.895703,19.69079 l 4.187341,0.0729 c 6.953,29.0489 35.064105,51.25266 69.736828,53.51353 l 0.0108,0.38086 9.10487,0.10335 0.0109,-0.36794 c 35.65442,-1.42644 64.84112,-23.97052 71.93979,-53.61946 l 4.80591,-0.0832 c 1.09783,-1.30586 0.40029,-9.20811 -6.89518,-19.69079 1.15668,12.1723 -0.79344,15.74559 -5.51543,19.90628 l 3.12229,-0.0543 c -13.16366,20.66178 -38.36169,34.49554 -66.94217,35.78955 l 2.29651,-79.09027 -0.0212,-0.17363 h 37.75531 c 0.86124,1.99605 2.9821,2.08246 5.34542,2.08463 3.17365,3e-5 5.74643,-2.33317 5.74641,-5.21157 2e-5,-2.8784 -2.57276,-5.21211 -5.74641,-5.21209 -2.36055,5.3e-4 -4.48063,0.093 -5.34542,2.08515 H 113.95051 Z M 59.193648,123.67379 c 1.135663,-8e-5 2.05632,0.71632 2.056204,1.5999 -1.7e-4,0.88342 -0.920742,1.59945 -2.056204,1.59939 -1.135465,6e-5 -2.056038,-0.71597 -2.056207,-1.59939 -1.14e-4,-0.88358 0.920541,-1.59998 2.056207,-1.5999 z m 98.622402,0 c 1.13567,-8e-5 2.05631,0.71632 2.0562,1.5999 -1.7e-4,0.88342 -0.92073,1.59945 -2.0562,1.59939 -1.13546,6e-5 -2.05604,-0.71597 -2.05621,-1.59939 -1.1e-4,-0.88357 0.92053,-1.59998 2.05621,-1.5999 z"
       id="path825"
       inkscape:connector-curvature="0" />
    <ellipse
       style="opacity:0.83800001;fill:#666666;fill-opacity:0;stroke:none;stroke-width:0.07;stroke-miterlimit:4;stroke-dasharray:none"
       id="path5014"
       cx="28.537201"
       cy="62.087795"
       rx="5.4806542"
       ry="7.3705359" />
    <ellipse
       style="opacity:0.83800001;fill:#666666;fill-opacity:0;stroke:none;stroke-width:0.07;stroke-miterlimit:4;stroke-dasharray:none"
       id="path5018"
       cx="32.505951"
       cy="80.41964"
       rx="9.8273811"
       ry="11.717261" />
  </g>
</svg>
