<?xml version="1.0" standalone="no"?>
<!DOCTYPE svg PUBLIC "-//W3C//DTD SVG 20010904//EN"
 "http://www.w3.org/TR/2001/REC-SVG-20010904/DTD/svg10.dtd">
<svg version="1.0" xmlns="http://www.w3.org/2000/svg"
 width="990.000000pt" height="990.000000pt" viewBox="0 0 990.000000 990.000000"
 preserveAspectRatio="xMidYMid meet">
<metadata>
Created by potrace 1.11, written by Peter Selinger 2001-2013
</metadata>
<g transform="translate(0.000000,990.000000) scale(0.100000,-0.100000)"
fill="#000000" stroke="none">
<path d="M5397 9604 c-1 -1 -38 -4 -81 -8 -44 -4 -83 -9 -88 -12 -5 -3 -24 -8
-41 -11 -39 -5 -183 -73 -217 -102 -105 -89 -157 -162 -214 -303 -12 -31 -18
-36 -38 -32 -66 16 -269 55 -313 60 -27 3 -61 7 -75 9 -221 35 -883 41 -1075
10 -16 -3 -52 -7 -80 -10 -66 -7 -134 -15 -165 -21 -14 -2 -41 -7 -60 -10 -32
-5 -114 -19 -167 -30 -13 -2 -33 -6 -45 -8 -71 -13 -136 -28 -158 -36 -14 -5
-37 -12 -52 -14 -15 -3 -31 -7 -36 -10 -5 -3 -21 -7 -37 -10 -41 -8 -204 -62
-310 -103 -91 -36 -326 -150 -335 -162 -3 -4 -12 -10 -20 -13 -29 -11 -175
-125 -228 -178 -75 -76 -136 -173 -168 -265 -24 -72 -26 -90 -21 -180 6 -105
11 -137 24 -158 4 -6 8 -16 9 -22 4 -26 52 -117 98 -185 71 -105 155 -197 286
-310 41 -36 77 -67 80 -70 18 -19 150 -110 159 -110 6 0 11 -4 11 -8 0 -9 114
-85 250 -166 133 -79 164 -96 183 -103 9 -3 17 -9 17 -14 0 -5 7 -9 15 -9 8 0
23 -9 32 -19 9 -11 20 -18 25 -15 8 5 68 -25 79 -39 3 -5 9 -8 13 -7 3 0 66
-28 139 -63 188 -92 293 -141 327 -152 34 -11 100 -46 100 -53 0 -5 -11 -34
-24 -63 -42 -97 -56 -174 -52 -291 2 -60 -1 -109 -5 -109 -60 -9 -156 -74
-245 -166 -58 -59 -165 -202 -203 -269 -9 -16 -19 -31 -22 -34 -3 -3 -29 -45
-58 -95 -28 -49 -56 -97 -60 -105 -15 -25 -203 -361 -228 -407 -12 -24 -21
-43 -18 -43 6 0 137 134 245 251 52 56 111 119 130 140 19 21 42 46 51 56 47
52 183 175 244 221 39 28 75 56 80 60 19 16 166 82 182 82 8 0 23 5 34 11 17
9 30 0 97 -65 87 -85 112 -107 162 -145 19 -14 37 -28 40 -31 8 -8 159 -104
225 -142 74 -44 291 -149 365 -178 30 -12 69 -28 85 -35 17 -8 89 -35 160 -60
72 -26 137 -50 145 -53 8 -3 20 -6 25 -8 6 -1 42 -13 80 -27 101 -37 445 -137
465 -136 3 0 19 -5 35 -11 17 -7 38 -14 48 -16 9 -2 25 -6 35 -8 9 -2 29 -9
43 -14 15 -6 29 -8 32 -5 3 3 12 1 19 -3 7 -5 18 -9 23 -10 8 -2 318 -80 350
-89 6 -1 25 -6 43 -10 18 -4 35 -12 38 -16 3 -5 14 -9 25 -9 12 0 17 -4 14
-11 -5 -6 -29 -8 -68 -4 -34 4 -84 8 -112 10 -27 2 -66 6 -85 9 -19 3 -53 8
-75 12 -22 3 -49 7 -60 9 -11 2 -40 6 -65 10 -60 9 -68 10 -195 35 -60 12
-121 24 -135 26 -14 3 -33 7 -42 10 -10 3 -30 7 -45 10 -16 3 -56 11 -89 19
-34 8 -73 16 -85 19 -13 2 -58 12 -99 21 -149 34 -226 49 -300 61 -19 3 -61
10 -94 15 -32 6 -91 12 -132 14 -40 2 -78 6 -83 10 -6 3 -11 3 -11 -2 0 -4
-25 -8 -55 -7 -107 1 -272 -56 -322 -112 -13 -14 -23 -22 -23 -19 0 7 -18 -13
-63 -70 -20 -24 -89 -155 -93 -175 0 -3 -3 -12 -6 -20 -6 -13 -21 -71 -33
-123 -2 -10 -7 -28 -11 -40 -3 -11 -8 -34 -10 -51 -1 -17 -5 -51 -9 -76 -11
-82 -14 -124 -20 -274 -6 -133 -5 -147 9 -135 8 8 38 34 66 59 29 25 76 68
106 96 29 27 70 63 89 80 20 16 53 44 73 62 20 17 62 49 92 69 30 21 57 41 60
44 12 15 122 69 171 83 31 10 90 16 139 16 79 0 112 -3 200 -16 19 -3 129 -6
243 -8 114 -2 210 -6 213 -8 2 -3 6 -19 8 -35 3 -32 56 -194 66 -203 3 -3 6
-9 7 -15 2 -5 16 -50 33 -98 55 -160 36 -257 -70 -362 -57 -58 -114 -105 -126
-105 -4 0 -15 -6 -23 -14 -37 -31 -207 -113 -426 -206 -55 -23 -164 -63 -262
-95 -59 -20 -115 -39 -123 -42 -8 -4 -18 -7 -22 -7 -3 -1 -10 -4 -14 -9 -4 -4
15 -7 42 -8 27 -1 60 -2 74 -4 14 -2 49 -5 77 -7 29 -1 53 -7 53 -11 0 -5 4
-5 10 -2 5 3 49 -1 97 -9 48 -8 106 -18 128 -21 23 -3 50 -7 60 -9 11 -2 45
-7 75 -11 30 -4 64 -9 75 -11 11 -3 69 -7 128 -9 60 -3 113 -7 118 -10 5 -4 9
-2 9 3 0 5 11 8 24 7 20 -3 66 4 136 19 8 2 28 8 43 14 16 7 31 12 35 12 4 0
41 20 82 44 88 51 209 166 270 256 13 19 27 37 30 40 4 3 17 25 31 50 13 25
27 47 30 50 10 8 104 196 143 285 49 112 53 116 181 151 6 1 53 12 106 23 85
18 117 23 209 36 14 1 39 5 55 9 35 6 142 22 205 31 25 3 57 8 71 10 14 3 41
7 60 9 19 3 48 7 64 10 17 3 50 8 75 11 42 6 264 41 319 50 14 2 47 9 75 15
28 6 62 12 76 15 29 6 92 18 103 21 4 1 8 2 10 3 1 2 13 5 27 7 30 5 169 43
190 51 8 3 20 7 25 8 38 9 158 64 195 89 46 30 90 74 90 89 0 5 15 38 32 75
64 132 44 273 -74 522 -28 58 -53 107 -57 110 -3 3 -17 26 -30 53 -13 26 -28
47 -32 47 -5 0 -9 5 -9 10 0 6 -22 45 -48 88 -67 106 -66 106 -56 101 23 -12
68 -32 174 -77 152 -66 249 -110 416 -192 77 -37 141 -66 142 -64 5 4 -60 98
-70 102 -4 2 -8 8 -8 14 0 6 -11 26 -25 44 -14 18 -25 37 -25 42 0 6 -3 12 -8
14 -4 2 -55 71 -112 153 -58 83 -112 159 -121 170 -10 11 -54 67 -100 125
-105 133 -128 159 -274 305 -134 134 -212 205 -226 205 -5 0 -9 5 -9 10 0 6
-5 10 -11 10 -6 0 -17 6 -24 13 -27 23 -40 33 -93 65 -29 18 -56 32 -61 32 -5
0 -11 4 -13 9 -9 25 -246 108 -315 110 -15 1 -38 27 -85 99 -34 53 -65 102
-67 107 -2 6 -17 29 -32 52 -16 23 -29 44 -29 46 0 3 -18 34 -39 69 -68 113
-159 309 -204 443 -24 72 -49 143 -56 158 -6 16 -11 31 -11 34 0 26 -191 437
-246 530 -11 17 -31 51 -45 75 -48 78 -48 78 33 161 61 62 191 153 194 137 0
-3 8 1 17 9 10 7 17 10 17 6 0 -4 6 -3 13 3 6 6 29 13 50 17 20 4 40 11 43 16
3 5 9 7 13 4 5 -2 23 0 41 5 18 5 52 12 74 15 23 3 57 8 76 11 19 2 75 7 124
9 49 3 91 7 94 10 3 3 11 0 18 -6 7 -5 14 -6 17 -2 6 9 140 9 155 -1 6 -3 13
-2 17 4 4 6 10 8 15 5 5 -3 74 -8 152 -10 162 -5 314 -13 373 -19 22 -3 78 -7
125 -10 84 -6 133 -10 240 -21 30 -3 87 -8 125 -11 39 -2 88 -7 110 -9 22 -2
63 -7 90 -9 28 -3 75 -8 105 -11 30 -3 78 -7 105 -10 56 -4 65 -8 -90 37 -38
11 -96 29 -129 40 -32 11 -63 21 -70 23 -10 2 -50 17 -86 32 -8 3 -18 7 -22 7
-3 1 -10 4 -14 9 -4 4 -13 7 -20 7 -7 0 -33 9 -58 20 -26 11 -50 20 -54 21 -8
2 -128 52 -177 74 -16 7 -86 36 -155 65 -69 29 -149 63 -178 76 -30 14 -129
56 -220 95 -92 38 -178 75 -192 81 -14 6 -34 14 -45 18 -11 5 -36 15 -55 23
-152 66 -583 226 -685 253 -5 2 -35 10 -65 19 -30 9 -65 18 -77 21 -12 2 -34
9 -48 14 -14 5 -25 7 -25 5 0 -2 -11 0 -24 5 -33 12 -236 48 -316 56 -64 6
-199 11 -203 8z"/>
</g>
</svg>
