<?xml version="1.0" encoding="UTF-8" standalone="no"?>
<!-- Created with Inkscape (http://www.inkscape.org/) -->

<svg
   xmlns:dc="http://purl.org/dc/elements/1.1/"
   xmlns:cc="http://creativecommons.org/ns#"
   xmlns:rdf="http://www.w3.org/1999/02/22-rdf-syntax-ns#"
   xmlns:svg="http://www.w3.org/2000/svg"
   xmlns="http://www.w3.org/2000/svg"
   xmlns:sodipodi="http://sodipodi.sourceforge.net/DTD/sodipodi-0.dtd"
   xmlns:inkscape="http://www.inkscape.org/namespaces/inkscape"
   width="8.5in"
   height="11in"
   viewBox="0 0 215.9 279.4"
   version="1.1"
   id="svg8"
   inkscape:version="0.92.3 (unknown)"
   sodipodi:docname="fcs1.svg">
  <defs
     id="defs2" />
  <sodipodi:namedview
     id="base"
     pagecolor="#ffffff"
     bordercolor="#666666"
     borderopacity="1.0"
     inkscape:pageopacity="0.0"
     inkscape:pageshadow="2"
     inkscape:zoom="0.7"
     inkscape:cx="429.20767"
     inkscape:cy="713.84252"
     inkscape:document-units="px"
     inkscape:current-layer="layer1"
     showgrid="false"
     units="in"
     inkscape:snap-nodes="false"
     inkscape:window-width="1327"
     inkscape:window-height="744"
     inkscape:window-x="39"
     inkscape:window-y="24"
     inkscape:window-maximized="1">
    <inkscape:grid
       type="xygrid"
       id="grid3713" />
  </sodipodi:namedview>
  <metadata
     id="metadata5">
    <rdf:RDF>
      <cc:Work
         rdf:about="">
        <dc:format>image/svg+xml</dc:format>
        <dc:type
           rdf:resource="http://purl.org/dc/dcmitype/StillImage" />
        <dc:title></dc:title>
      </cc:Work>
    </rdf:RDF>
  </metadata>
  <g
     inkscape:label="Layer 1"
     inkscape:groupmode="layer"
     id="layer1"
     transform="translate(0,-17.599974)">
    <path
       style="fill:#999999;stroke:none;stroke-width:0.30823958px;stroke-linecap:butt;stroke-linejoin:miter;stroke-opacity:1"
       d="m 100.92708,43.966558 c 7.16455,-46.1146122 84.80059,10.712445 111.33303,11.16771 -73.51004,-7.616133 -78.19847,-5.792175 -82.20167,26.434328 -16.52386,-9.856945 -22.64219,-23.802342 -29.13136,-37.602038 z"
       id="path3753"
       inkscape:connector-curvature="0"
       sodipodi:nodetypes="cccc" />
    <path
       style="fill:#cccccc;stroke:none;stroke-width:0.26458332px;stroke-linecap:butt;stroke-linejoin:miter;stroke-opacity:1"
       d="m 59.349589,121.66672 c -10.098655,-0.19405 -17.455338,16.36068 -26.589801,32.35658 11.257476,-10.15366 21.176679,-27.56223 35.114024,-23.18806 -2.713715,-2.08629 -5.253615,-9.98563 -8.524223,-9.16852 z"
       id="path3751"
       inkscape:connector-curvature="0"
       sodipodi:nodetypes="cccc" />
    <g
       id="g3721"
       transform="translate(9.0714286,31.75)"
       style="fill:#b3b3b3;stroke:none">
      <path
         sodipodi:nodetypes="cccccccccc"
         inkscape:connector-curvature="0"
         id="path3715"
         d="m 122.69227,129.48264 c -40.99218,-2.93822 -67.655063,-26.56273 -67.691037,23.25772 23.272575,-21.89285 17.97806,-12.7306 41.315257,-14.08918 1.778306,12.95989 17.78906,19.27179 -27.299,33.92232 23.002622,0.72642 37.19625,13.7698 51.51015,-21.44911 3.18459,-4.64323 58.56795,-6.01278 59.50869,-16.563 C 191.01459,120.56109 143.87426,78.459065 136.88177,51.175128 133.48778,41.351538 121.99028,14.193956 106.12742,12.128902 56.445647,-11.800737 -75.019877,23.318674 50.084068,77.079107 30.612691,115.52668 133.8186,128.31132 122.69227,129.48264 Z"
         style="fill:#b3b3b3;stroke:none;stroke-width:0.21919243px;stroke-linecap:butt;stroke-linejoin:miter;stroke-opacity:1" />
    </g>
    <path
       style="fill:#cccccc;stroke:none;stroke-width:0.23676857px;stroke-linecap:butt;stroke-linejoin:miter;stroke-opacity:1"
       d="m 157.26024,107.96571 c 18.54486,0.59413 35.36598,26.5697 44.75987,40.70754 -37.36877,-18.79126 -51.27898,-18.81301 -59.61618,-14.37567 l 3.64188,-24.89093 c 2.45957,-6.23501 6.85395,-3.76173 11.21443,-1.44094 z"
       id="path3749"
       inkscape:connector-curvature="0"
       sodipodi:nodetypes="ccccc" />
    <path
       style="fill:#ffffff;fill-opacity:1;stroke:none;stroke-width:0.2111938px;stroke-linecap:butt;stroke-linejoin:miter;stroke-opacity:1"
       d="m 74.623607,52.298479 c 3.00823,3.198666 17.25677,-8.138477 21.03097,-2.642363 0,0 -7.76819,9.488485 -11.74703,9.248271 -3.97883,-0.240215 -9.28394,-6.605908 -9.28394,-6.605908 z"
       id="path4605"
       inkscape:connector-curvature="0"
       sodipodi:nodetypes="ccsc" />
    <path
       style="fill:#ffffff;stroke:none;stroke-width:0.34973353px;stroke-linecap:butt;stroke-linejoin:miter;stroke-opacity:1"
       d="M 40.268361,100.69094 C 35.068107,90.028315 35.92345,80.5947 54.49681,74.757106 76.055085,74.619106 82.699644,83.16887 94.295714,88.834192 58.382128,80.327154 42.588885,85.325624 40.268361,100.69094 Z"
       id="path4607"
       inkscape:connector-curvature="0"
       sodipodi:nodetypes="cccc" />
  </g>
</svg>
