<?xml version="1.0" encoding="UTF-8" standalone="no"?>
<!-- Created with Inkscape (http://www.inkscape.org/) -->

<svg
   xmlns:dc="http://purl.org/dc/elements/1.1/"
   xmlns:cc="http://creativecommons.org/ns#"
   xmlns:rdf="http://www.w3.org/1999/02/22-rdf-syntax-ns#"
   xmlns:svg="http://www.w3.org/2000/svg"
   xmlns="http://www.w3.org/2000/svg"
   xmlns:xlink="http://www.w3.org/1999/xlink"
   xmlns:sodipodi="http://sodipodi.sourceforge.net/DTD/sodipodi-0.dtd"
   xmlns:inkscape="http://www.inkscape.org/namespaces/inkscape"
   width="210mm"
   height="297mm"
   viewBox="0 0 210 297"
   version="1.1"
   id="svg1402"
   inkscape:version="0.92.3 (unknown)"
   sodipodi:docname="cagemaster.svg">
  <defs
     id="defs1396">
    <linearGradient
       inkscape:collect="always"
       id="linearGradient2011">
      <stop
         style="stop-color:#000000;stop-opacity:1;"
         offset="0"
         id="stop2007" />
      <stop
         style="stop-color:#000000;stop-opacity:0;"
         offset="1"
         id="stop2009" />
    </linearGradient>
    <radialGradient
       inkscape:collect="always"
       xlink:href="#linearGradient2011"
       id="radialGradient2013"
       cx="106.64054"
       cy="149.19997"
       fx="106.64054"
       fy="149.19997"
       r="105.57146"
       gradientTransform="matrix(0.90712295,0.00878255,-0.01316876,0.81960366,13.674147,22.404044)"
       gradientUnits="userSpaceOnUse" />
  </defs>
  <sodipodi:namedview
     id="base"
     pagecolor="#ffffff"
     bordercolor="#666666"
     borderopacity="1.0"
     inkscape:pageopacity="0.0"
     inkscape:pageshadow="2"
     inkscape:zoom="0.49497475"
     inkscape:cx="-167.70808"
     inkscape:cy="577.47689"
     inkscape:document-units="mm"
     inkscape:current-layer="layer3"
     showgrid="false"
     inkscape:snap-global="false"
     inkscape:window-width="1327"
     inkscape:window-height="744"
     inkscape:window-x="39"
     inkscape:window-y="24"
     inkscape:window-maximized="1" />
  <metadata
     id="metadata1399">
    <rdf:RDF>
      <cc:Work
         rdf:about="">
        <dc:format>image/svg+xml</dc:format>
        <dc:type
           rdf:resource="http://purl.org/dc/dcmitype/StillImage" />
        <dc:title></dc:title>
      </cc:Work>
    </rdf:RDF>
  </metadata>
  <g
     inkscape:label="Layer 1"
     inkscape:groupmode="layer"
     id="layer1"
     sodipodi:insensitive="true">
    <path
       style="opacity:0.98000004;fill:#008080;fill-opacity:1;stroke:none;stroke-width:0.065;stroke-miterlimit:4;stroke-dasharray:none;stroke-dashoffset:0;stroke-opacity:1"
       id="path2003"
       sodipodi:type="arc"
       sodipodi:cx="106.64054"
       sodipodi:cy="149.19997"
       sodipodi:rx="105.57146"
       sodipodi:ry="88.466209"
       sodipodi:start="0.20968386"
       sodipodi:end="0.19655724"
       sodipodi:open="true"
       d="M 209.89964,167.61427 A 105.57146,88.466209 0 0 1 85.004747,235.78844 105.57146,88.466209 0 0 1 3.2394381,131.35397 105.57146,88.466209 0 0 1 127.59768,62.494361 105.57146,88.466209 0 0 1 210.17919,166.47689" />
    <path
       d="M 277.38438,169.01186 A 172.72209,112.35322 0 0 1 73.047826,255.59393 172.72209,112.35322 0 0 1 -60.725787,122.96081 172.72209,112.35322 0 0 1 142.73277,35.508229 172.72209,112.35322 0 0 1 277.84174,167.56737"
       sodipodi:open="true"
       sodipodi:end="0.19655724"
       sodipodi:start="0.20968386"
       sodipodi:ry="112.35322"
       sodipodi:rx="172.72209"
       sodipodi:cy="145.62546"
       sodipodi:cx="108.44546"
       sodipodi:type="arc"
       id="path2005"
       style="opacity:0.98000004;fill:url(#radialGradient2013);fill-opacity:1;stroke:none;stroke-width:0.06500001;stroke-miterlimit:4;stroke-dasharray:none;stroke-dashoffset:0;stroke-opacity:1" />
  </g>
  <g
     inkscape:groupmode="layer"
     id="layer3"
     inkscape:label="Layer 2">
    <rect
       style="opacity:0.98000004;fill:#999999;fill-opacity:1;stroke:none;stroke-width:0.065;stroke-miterlimit:4;stroke-dasharray:none;stroke-dashoffset:0;stroke-opacity:1"
       id="rect2033"
       width="9.0871639"
       height="2.6726952"
       x="10.588654"
       y="154.09505"
       ry="1.3363476"
       transform="rotate(-24.755427)" />
    <path
       inkscape:connector-curvature="0"
       style="opacity:0.98000004;fill:#666666;fill-opacity:1;stroke:none;stroke-width:0.06500001;stroke-miterlimit:4;stroke-dasharray:none;stroke-dashoffset:0;stroke-opacity:1"
       d="m 124.79963,128.40655 c -0.0921,-0.0898 -0.21755,-0.11292 -0.28166,-0.0511 l -2.91888,2.80671 c -0.064,0.0615 -0.0413,0.18333 0.0508,0.27318 l 6.92202,6.75295 c 0.0921,0.0898 0.21757,0.11293 0.28169,0.0512 l 2.91885,-2.80671 c 0.064,-0.0615 0.0414,-0.18334 -0.0507,-0.27319 z m 0.62924,1.95618 4.2777,4.1732 c 0.15472,0.15093 0.19272,0.3557 0.0853,0.45906 l -1.37586,1.32298 c -0.10751,0.10335 -0.31878,0.0647 -0.47333,-0.0859 l -4.27768,-4.17319 c -0.15474,-0.15093 -0.19273,-0.35571 -0.0853,-0.45906 l 1.37585,-1.32299 c 0.10751,-0.10335 0.31852,-0.0652 0.47334,0.0859 z"
       id="path2039" />
    <g
       id="g2100"
       transform="translate(-0.89769345,-1.2756696)">
      <path
         inkscape:transform-center-y="2.6726953"
         inkscape:transform-center-x="-3.4745039"
         inkscape:connector-curvature="0"
         style="opacity:0.98000004;fill:#4d4d4d;fill-opacity:1;stroke:none;stroke-width:0.06500002;stroke-miterlimit:4;stroke-dasharray:none;stroke-dashoffset:0;stroke-opacity:1"
         d="m 133.91401,138.55114 c -0.0439,-0.0895 -0.12878,-0.13784 -0.19093,-0.10775 l -2.82702,1.36151 c -0.062,0.0298 -0.0765,0.12595 -0.0327,0.21552 l 3.294,6.73215 c 0.0439,0.0895 0.12879,0.13785 0.19092,0.10786 l 2.827,-1.36151 c 0.062,-0.0298 0.0766,-0.12592 0.0328,-0.21551 z m -0.0419,1.60913 2.03564,4.16034 c 0.0736,0.15047 0.0491,0.312 -0.055,0.36217 l -1.33256,0.64176 c -0.10413,0.0501 -0.24724,-0.0309 -0.32085,-0.18109 l -2.03564,-4.16033 c -0.0736,-0.15047 -0.0491,-0.31201 0.055,-0.36217 l 1.33256,-0.64177 c 0.10416,-0.0502 0.24718,0.0305 0.32082,0.18118 z"
         id="path2043" />
      <path
         id="path2045"
         d="m 136.58179,148.72436 c 0.0335,-0.0561 0.0214,-0.11604 -0.0277,-0.13454 l -2.22895,-0.84407 c -0.0488,-0.0185 -0.11514,0.0117 -0.14871,0.0678 l -2.5221,4.21311 c -0.0335,0.0561 -0.0214,0.11605 0.0276,0.13457 l 2.22894,0.84406 c 0.0488,0.0185 0.11518,-0.0117 0.14876,-0.0677 z m -1.01087,0.60438 -1.55861,2.60363 c -0.0564,0.0942 -0.16784,0.14497 -0.24994,0.1139 l -1.05064,-0.39787 c -0.0821,-0.0311 -0.10265,-0.13204 -0.0464,-0.2261 l 1.5586,-2.60361 c 0.0564,-0.0942 0.16785,-0.14498 0.24994,-0.11391 l 1.05065,0.39787 c 0.0822,0.0311 0.10286,0.13186 0.0464,0.22612 z"
         style="opacity:0.98000004;fill:#4d4d4d;fill-opacity:1;stroke:none;stroke-width:0.06500002;stroke-miterlimit:4;stroke-dasharray:none;stroke-dashoffset:0;stroke-opacity:1"
         inkscape:connector-curvature="0"
         inkscape:transform-center-x="-0.06488576"
         inkscape:transform-center-y="2.7246983" />
      <path
         inkscape:transform-center-y="0.026347571"
         inkscape:transform-center-x="1.6881318"
         inkscape:connector-curvature="0"
         style="opacity:0.98000004;fill:#333333;fill-opacity:1;stroke:none;stroke-width:0.06500002;stroke-miterlimit:4;stroke-dasharray:none;stroke-dashoffset:0;stroke-opacity:1"
         d="m 130.26904,154.45658 c 0.0346,0.0194 0.0718,0.0127 0.0835,-0.0153 l 0.53241,-1.2703 c 0.0116,-0.0278 -0.007,-0.0658 -0.0414,-0.0852 l -2.59909,-1.45776 c -0.0346,-0.0194 -0.0718,-0.0127 -0.0835,0.0153 l -0.53241,1.27029 c -0.0116,0.0278 0.007,0.0659 0.0413,0.0853 z m -0.37007,-0.58 -1.60619,-0.90087 c -0.0581,-0.0326 -0.0891,-0.0965 -0.0695,-0.14327 l 0.25096,-0.59877 c 0.0196,-0.0468 0.0822,-0.0581 0.14026,-0.0256 l 1.60618,0.90086 c 0.0581,0.0326 0.0891,0.0965 0.0695,0.14327 l -0.25096,0.59877 c -0.0196,0.0469 -0.0821,0.0583 -0.14028,0.0256 z"
         id="path2047" />
      <path
         inkscape:transform-center-y="0.016612902"
         inkscape:transform-center-x="1.1993117"
         inkscape:connector-curvature="0"
         style="opacity:0.98000004;fill:#333333;fill-opacity:1;stroke:none;stroke-width:0.06500003;stroke-miterlimit:4;stroke-dasharray:none;stroke-dashoffset:0;stroke-opacity:1"
         d="m 123.08898,151.14939 c 0.0246,0.0123 0.051,0.008 0.0593,-0.01 l 0.37824,-0.80712 c 0.008,-0.0177 -0.005,-0.0418 -0.0294,-0.0541 l -1.84649,-0.92623 c -0.0246,-0.0123 -0.051,-0.008 -0.0593,0.01 l -0.37824,0.80712 c -0.008,0.0177 0.005,0.0419 0.0293,0.0542 z m -0.26292,-0.36852 -1.14109,-0.57239 c -0.0413,-0.0207 -0.0633,-0.0613 -0.0494,-0.091 l 0.17829,-0.38044 c 0.0139,-0.0297 0.0584,-0.0369 0.0996,-0.0163 l 1.14109,0.57239 c 0.0413,0.0207 0.0633,0.0613 0.0494,0.091 l -0.17829,0.38044 c -0.0139,0.0298 -0.0583,0.037 -0.0997,0.0163 z"
         id="path2051" />
      <g
         id="g2079">
        <path
           id="path2025"
           d="m 54.567158,138.57871 c -0.246399,0.10391 -0.355622,0.34785 -0.244964,0.54709 l 5.048192,9.08942 c 0.110662,0.19924 0.397976,0.27596 0.644374,0.17205 l 18.518311,-7.80948 c 0.246397,-0.10392 0.355623,-0.34786 0.244961,-0.54711 l -5.048192,-9.0894 c -0.110658,-0.19925 -0.397975,-0.27597 -0.644372,-0.17205 z m 4.735621,0.66615 11.443958,-4.82612 c 0.413947,-0.17456 0.896885,-0.0456 1.082791,0.28912 l 2.379548,4.28444 c 0.18591,0.33473 0.0023,0.74477 -0.411627,0.91933 l -11.443958,4.82612 c -0.413943,0.17457 -0.896885,0.0456 -1.082795,-0.28912 l -2.379548,-4.28444 c -0.185906,-0.33473 -0.0023,-0.74477 0.411631,-0.91933 z"
           style="opacity:0.98000004;fill:#999999;fill-opacity:1;stroke:none;stroke-width:0.06500001;stroke-miterlimit:4;stroke-dasharray:none;stroke-dashoffset:0;stroke-opacity:1"
           inkscape:connector-curvature="0" />
        <path
           style="opacity:0.98000004;fill:#cccccc;fill-opacity:1;stroke:none;stroke-width:0.065;stroke-miterlimit:4;stroke-dasharray:none;stroke-dashoffset:0;stroke-opacity:1"
           d="m 22.414154,161.78064 c -0.297855,0.22494 -0.421694,0.55934 -0.277732,0.74997 l 6.56729,8.69608 c 0.143961,0.19063 0.499484,0.16301 0.797338,-0.0619 l 22.385728,-16.90572 c 0.297857,-0.22494 0.421693,-0.55934 0.277731,-0.74997 l -6.56729,-8.69608 c -0.143961,-0.19063 -0.499481,-0.16301 -0.797338,0.0619 z m 5.834981,-1.16469 13.833943,-10.44741 c 0.500397,-0.3779 1.097972,-0.42432 1.339822,-0.10407 l 3.095599,4.09904 c 0.241851,0.32025 0.03371,0.88233 -0.466693,1.26023 l -13.833943,10.4474 c -0.500396,0.3779 -1.097985,0.42432 -1.339836,0.10407 l -3.095599,-4.09904 c -0.24185,-0.32025 -0.03369,-0.88232 0.466707,-1.26022 z"
           id="path2027"
           inkscape:connector-curvature="0" />
        <rect
           ry="3.0869629"
           y="38.091888"
           x="145.53079"
           height="21.381561"
           width="4.8108516"
           id="rect2031"
           style="opacity:0.98000004;fill:#cccccc;fill-opacity:1;stroke:none;stroke-width:0.06500001;stroke-miterlimit:4;stroke-dasharray:none;stroke-dashoffset:0;stroke-opacity:1"
           transform="rotate(52.203017)" />
        <path
           inkscape:connector-curvature="0"
           style="opacity:0.98000004;fill:#666666;fill-opacity:1;stroke:none;stroke-width:0.06500001;stroke-miterlimit:4;stroke-dasharray:none;stroke-dashoffset:0;stroke-opacity:1"
           d="m 93.99125,125.25176 c -0.133699,0.0585 -0.192964,0.19562 -0.13292,0.30767 l 2.739208,5.11157 c 0.06005,0.11204 0.215947,0.15519 0.349645,0.0968 l 10.048257,-4.39178 c 0.13369,-0.0585 0.19296,-0.19562 0.13291,-0.30768 l -2.7392,-5.11156 c -0.06,-0.11205 -0.21595,-0.1552 -0.34964,-0.0968 z m 2.569604,0.37463 6.209626,-2.71405 c 0.22461,-0.0982 0.48666,-0.0256 0.58754,0.16259 l 1.29117,2.40942 c 0.10088,0.18825 7.6e-4,0.41884 -0.22336,0.517 l -6.209624,2.71404 c -0.22461,0.0982 -0.48666,0.0256 -0.587537,-0.16259 l -1.291171,-2.40941 c -0.100875,-0.18825 -0.0012,-0.41884 0.223356,-0.517 z"
           id="path2035" />
        <path
           id="path2037"
           d="m 109.34773,120.3531 c -0.14844,-0.0611 -0.29839,-0.0114 -0.33636,0.11166 l -1.73218,5.61295 c -0.038,0.12302 0.0509,0.27126 0.19933,0.33243 l 11.15465,4.59722 c 0.14845,0.0611 0.29841,0.0114 0.33639,-0.11167 l 1.73216,-5.61294 c 0.038,-0.12302 -0.0509,-0.27127 -0.19932,-0.33244 z m 1.71943,2.21063 6.89338,2.84098 c 0.24933,0.10278 0.3987,0.35194 0.33493,0.55863 l -0.81649,2.64574 c -0.0638,0.20671 -0.31628,0.29002 -0.56523,0.18764 l -6.89337,-2.84098 c -0.24934,-0.10276 -0.3987,-0.35195 -0.33494,-0.55862 l 0.81648,-2.64576 c 0.0638,-0.20671 0.3157,-0.29059 0.56524,-0.18763 z"
           style="opacity:0.98000004;fill:#666666;fill-opacity:1;stroke:none;stroke-width:0.06500001;stroke-miterlimit:4;stroke-dasharray:none;stroke-dashoffset:0;stroke-opacity:1"
           inkscape:connector-curvature="0" />
        <path
           id="path2041"
           d="m 78.539827,130.8623 c -0.176632,0.0726 -0.254929,0.24286 -0.175603,0.38197 l 3.618821,6.34608 c 0.07933,0.1391 0.285291,0.19267 0.461923,0.12012 l 13.274942,-5.45244 c 0.17663,-0.0726 0.25493,-0.24287 0.1756,-0.38199 l -3.618818,-6.34606 c -0.07933,-0.13911 -0.285294,-0.19268 -0.46192,-0.12012 z m 3.394754,0.4651 8.203654,-3.36952 c 0.296742,-0.12187 0.64294,-0.0318 0.776211,0.20186 l 1.705785,2.99132 c 0.13327,0.23371 0.0014,0.51999 -0.295072,0.64186 l -8.20366,3.36952 c -0.296737,0.12188 -0.642937,0.0318 -0.776207,-0.20186 l -1.705791,-2.99132 c -0.133268,-0.23371 -0.0016,-0.51999 0.29508,-0.64186 z"
           style="opacity:0.98000004;fill:#808080;fill-opacity:1;stroke:none;stroke-width:0.06500001;stroke-miterlimit:4;stroke-dasharray:none;stroke-dashoffset:0;stroke-opacity:1"
           inkscape:connector-curvature="0" />
        <rect
           transform="rotate(-24.755427)"
           ry="1.3363476"
           y="155.05052"
           x="27.659876"
           height="2.6726952"
           width="9.0871639"
           id="rect2053"
           style="opacity:0.98000004;fill:#808080;fill-opacity:1;stroke:none;stroke-width:0.065;stroke-miterlimit:4;stroke-dasharray:none;stroke-dashoffset:0;stroke-opacity:1" />
        <rect
           style="opacity:0.98000004;fill:#666666;fill-opacity:1;stroke:none;stroke-width:0.06500248;stroke-miterlimit:4;stroke-dasharray:none;stroke-dashoffset:0;stroke-opacity:1"
           id="rect2055"
           width="6.9372787"
           height="1.9208366"
           x="116.35943"
           y="112.24698"
           ry="0.96041828"
           transform="matrix(0.99549269,0.09483835,-0.10714425,0.99424349,0,0)" />
        <rect
           transform="matrix(0.80369871,0.59503645,-0.66944202,0.74286431,0,0)"
           ry="0.85924631"
           y="30.706638"
           x="173.2352"
           height="1.7184926"
           width="9.192688"
           id="rect2057"
           style="opacity:0.98000004;fill:#666666;fill-opacity:1;stroke:none;stroke-width:0.06515061;stroke-miterlimit:4;stroke-dasharray:none;stroke-dashoffset:0;stroke-opacity:1" />
        <rect
           style="opacity:0.98000004;fill:#666666;fill-opacity:1;stroke:none;stroke-width:0.06515061;stroke-miterlimit:4;stroke-dasharray:none;stroke-dashoffset:0;stroke-opacity:1"
           id="rect2059"
           width="9.192688"
           height="1.7184926"
           x="183.97536"
           y="-9.3595142"
           ry="0.85924631"
           transform="matrix(0.65739671,0.75354467,-0.81317342,0.58202147,0,0)" />
      </g>
      <rect
         inkscape:transform-center-y="-0.27040306"
         inkscape:transform-center-x="0.21383062"
         style="opacity:0.98000004;fill:#4d4d4d;fill-opacity:1;stroke:none;stroke-width:0.06529398;stroke-miterlimit:4;stroke-dasharray:none;stroke-dashoffset:0;stroke-opacity:1"
         id="rect2061"
         width="4.0808272"
         height="0.72234416"
         x="-137.63152"
         y="166.22014"
         ry="0.36117208"
         transform="matrix(0.22497996,-0.97436339,0.99569986,0.09263799,0,0)" />
      <rect
         transform="matrix(0.51405481,-0.85775734,0.99935816,0.03582282,0,0)"
         ry="0.69003409"
         y="218.64998"
         x="-171.28659"
         height="1.3800682"
         width="3.4247725"
         id="rect2063"
         style="opacity:0.98000004;fill:#4d4d4d;fill-opacity:1;stroke:none;stroke-width:0.06946325;stroke-miterlimit:4;stroke-dasharray:none;stroke-dashoffset:0;stroke-opacity:1"
         inkscape:transform-center-x="0.41003205"
         inkscape:transform-center-y="-0.19977212" />
      <rect
         inkscape:transform-center-y="0.27974251"
         inkscape:transform-center-x="0.16516007"
         style="opacity:0.98000004;fill:#333333;fill-opacity:1;stroke:none;stroke-width:0.07127986;stroke-miterlimit:4;stroke-dasharray:none;stroke-dashoffset:0;stroke-opacity:1"
         id="rect2065"
         width="2.3491464"
         height="1.0163181"
         x="-169.48927"
         y="-35.314381"
         ry="0.50815904"
         transform="matrix(-0.73693422,-0.67596446,0.15278433,-0.98825955,0,0)" />
      <rect
         transform="matrix(-0.73693422,-0.67596446,0.15278433,-0.98825956,0,0)"
         ry="0.50815904"
         y="-32.861485"
         x="-177.82831"
         height="1.0163181"
         width="2.3491464"
         id="rect2067"
         style="opacity:0.98000004;fill:#333333;fill-opacity:1;stroke:none;stroke-width:0.07127986;stroke-miterlimit:4;stroke-dasharray:none;stroke-dashoffset:0;stroke-opacity:1"
         inkscape:transform-center-x="0.16516007"
         inkscape:transform-center-y="0.27974251" />
    </g>
    <g
       transform="matrix(-0.19225111,-0.75417202,0.81863395,-0.33081912,19.378125,292.79016)"
       id="g2140"
       style="opacity:0.71399997;fill:#1a1a1a;stroke-width:1.21179533">
      <path
         id="path2102"
         d="m 133.91401,138.55114 c -0.0439,-0.0895 -0.12878,-0.13784 -0.19093,-0.10775 l -2.82702,1.36151 c -0.062,0.0298 -0.0765,0.12595 -0.0327,0.21552 l 3.294,6.73215 c 0.0439,0.0895 0.12879,0.13785 0.19092,0.10786 l 2.827,-1.36151 c 0.062,-0.0298 0.0766,-0.12592 0.0328,-0.21551 z m -0.0419,1.60913 2.03564,4.16034 c 0.0736,0.15047 0.0491,0.312 -0.055,0.36217 l -1.33256,0.64176 c -0.10413,0.0501 -0.24724,-0.0309 -0.32085,-0.18109 l -2.03564,-4.16033 c -0.0736,-0.15047 -0.0491,-0.31201 0.055,-0.36217 l 1.33256,-0.64177 c 0.10416,-0.0502 0.24718,0.0305 0.32082,0.18118 z"
         style="opacity:0.98000004;fill:#1a1a1a;fill-opacity:1;stroke:none;stroke-width:0.07876671;stroke-miterlimit:4;stroke-dasharray:none;stroke-dashoffset:0;stroke-opacity:1"
         inkscape:connector-curvature="0"
         inkscape:transform-center-x="-3.4745039"
         inkscape:transform-center-y="2.6726953" />
      <path
         inkscape:transform-center-y="2.7246983"
         inkscape:transform-center-x="-0.06488576"
         inkscape:connector-curvature="0"
         style="opacity:0.98000004;fill:#1a1a1a;fill-opacity:1;stroke:none;stroke-width:0.07876671;stroke-miterlimit:4;stroke-dasharray:none;stroke-dashoffset:0;stroke-opacity:1"
         d="m 136.58179,148.72436 c 0.0335,-0.0561 0.0214,-0.11604 -0.0277,-0.13454 l -2.22895,-0.84407 c -0.0488,-0.0185 -0.11514,0.0117 -0.14871,0.0678 l -2.5221,4.21311 c -0.0335,0.0561 -0.0214,0.11605 0.0276,0.13457 l 2.22894,0.84406 c 0.0488,0.0185 0.11518,-0.0117 0.14876,-0.0677 z m -1.01087,0.60438 -1.55861,2.60363 c -0.0564,0.0942 -0.16784,0.14497 -0.24994,0.1139 l -1.05064,-0.39787 c -0.0821,-0.0311 -0.10265,-0.13204 -0.0464,-0.2261 l 1.5586,-2.60361 c 0.0564,-0.0942 0.16785,-0.14498 0.24994,-0.11391 l 1.05065,0.39787 c 0.0822,0.0311 0.10286,0.13186 0.0464,0.22612 z"
         id="path2104" />
      <path
         id="path2106"
         d="m 130.26904,154.45658 c 0.0346,0.0194 0.0718,0.0127 0.0835,-0.0153 l 0.53241,-1.2703 c 0.0116,-0.0278 -0.007,-0.0658 -0.0414,-0.0852 l -2.59909,-1.45776 c -0.0346,-0.0194 -0.0718,-0.0127 -0.0835,0.0153 l -0.53241,1.27029 c -0.0116,0.0278 0.007,0.0659 0.0413,0.0853 z m -0.37007,-0.58 -1.60619,-0.90087 c -0.0581,-0.0326 -0.0891,-0.0965 -0.0695,-0.14327 l 0.25096,-0.59877 c 0.0196,-0.0468 0.0822,-0.0581 0.14026,-0.0256 l 1.60618,0.90086 c 0.0581,0.0326 0.0891,0.0965 0.0695,0.14327 l -0.25096,0.59877 c -0.0196,0.0469 -0.0821,0.0583 -0.14028,0.0256 z"
         style="opacity:0.98000004;fill:#1a1a1a;fill-opacity:1;stroke:none;stroke-width:0.07876671;stroke-miterlimit:4;stroke-dasharray:none;stroke-dashoffset:0;stroke-opacity:1"
         inkscape:connector-curvature="0"
         inkscape:transform-center-x="1.6881318"
         inkscape:transform-center-y="0.026347571" />
      <path
         id="path2108"
         d="m 123.08898,151.14939 c 0.0246,0.0123 0.051,0.008 0.0593,-0.01 l 0.37824,-0.80712 c 0.008,-0.0177 -0.005,-0.0418 -0.0294,-0.0541 l -1.84649,-0.92623 c -0.0246,-0.0123 -0.051,-0.008 -0.0593,0.01 l -0.37824,0.80712 c -0.008,0.0177 0.005,0.0419 0.0293,0.0542 z m -0.26292,-0.36852 -1.14109,-0.57239 c -0.0413,-0.0207 -0.0633,-0.0613 -0.0494,-0.091 l 0.17829,-0.38044 c 0.0139,-0.0297 0.0584,-0.0369 0.0996,-0.0163 l 1.14109,0.57239 c 0.0413,0.0207 0.0633,0.0613 0.0494,0.091 l -0.17829,0.38044 c -0.0139,0.0298 -0.0583,0.037 -0.0997,0.0163 z"
         style="opacity:0.98000004;fill:#1a1a1a;fill-opacity:1;stroke:none;stroke-width:0.07876673;stroke-miterlimit:4;stroke-dasharray:none;stroke-dashoffset:0;stroke-opacity:1"
         inkscape:connector-curvature="0"
         inkscape:transform-center-x="1.1993117"
         inkscape:transform-center-y="0.016612902" />
      <g
         id="g2130"
         style="fill:#1a1a1a;stroke-width:1.21179533">
        <path
           inkscape:connector-curvature="0"
           style="opacity:0.98000004;fill:#1a1a1a;fill-opacity:1;stroke:none;stroke-width:0.07876671;stroke-miterlimit:4;stroke-dasharray:none;stroke-dashoffset:0;stroke-opacity:1"
           d="m 54.567158,138.57871 c -0.246399,0.10391 -0.355622,0.34785 -0.244964,0.54709 l 5.048192,9.08942 c 0.110662,0.19924 0.397976,0.27596 0.644374,0.17205 l 18.518311,-7.80948 c 0.246397,-0.10392 0.355623,-0.34786 0.244961,-0.54711 l -5.048192,-9.0894 c -0.110658,-0.19925 -0.397975,-0.27597 -0.644372,-0.17205 z m 4.735621,0.66615 11.443958,-4.82612 c 0.413947,-0.17456 0.896885,-0.0456 1.082791,0.28912 l 2.379548,4.28444 c 0.18591,0.33473 0.0023,0.74477 -0.411627,0.91933 l -11.443958,4.82612 c -0.413943,0.17457 -0.896885,0.0456 -1.082795,-0.28912 l -2.379548,-4.28444 c -0.185906,-0.33473 -0.0023,-0.74477 0.411631,-0.91933 z"
           id="path2110" />
        <path
           inkscape:connector-curvature="0"
           id="path2112"
           d="m 22.414154,161.78064 c -0.297855,0.22494 -0.421694,0.55934 -0.277732,0.74997 l 6.56729,8.69608 c 0.143961,0.19063 0.499484,0.16301 0.797338,-0.0619 l 22.385728,-16.90572 c 0.297857,-0.22494 0.421693,-0.55934 0.277731,-0.74997 l -6.56729,-8.69608 c -0.143961,-0.19063 -0.499481,-0.16301 -0.797338,0.0619 z m 5.834981,-1.16469 13.833943,-10.44741 c 0.500397,-0.3779 1.097972,-0.42432 1.339822,-0.10407 l 3.095599,4.09904 c 0.241851,0.32025 0.03371,0.88233 -0.466693,1.26023 l -13.833943,10.4474 c -0.500396,0.3779 -1.097985,0.42432 -1.339836,0.10407 l -3.095599,-4.09904 c -0.24185,-0.32025 -0.03369,-0.88232 0.466707,-1.26022 z"
           style="opacity:0.98000004;fill:#1a1a1a;fill-opacity:1;stroke:none;stroke-width:0.07876668;stroke-miterlimit:4;stroke-dasharray:none;stroke-dashoffset:0;stroke-opacity:1" />
        <rect
           transform="rotate(52.203017)"
           style="opacity:0.98000004;fill:#1a1a1a;fill-opacity:1;stroke:none;stroke-width:0.07876671;stroke-miterlimit:4;stroke-dasharray:none;stroke-dashoffset:0;stroke-opacity:1"
           id="rect2114"
           width="4.8108516"
           height="21.381561"
           x="145.53079"
           y="38.091888"
           ry="3.0869629" />
        <path
           id="path2116"
           d="m 93.99125,125.25176 c -0.133699,0.0585 -0.192964,0.19562 -0.13292,0.30767 l 2.739208,5.11157 c 0.06005,0.11204 0.215947,0.15519 0.349645,0.0968 l 10.048257,-4.39178 c 0.13369,-0.0585 0.19296,-0.19562 0.13291,-0.30768 l -2.7392,-5.11156 c -0.06,-0.11205 -0.21595,-0.1552 -0.34964,-0.0968 z m 2.569604,0.37463 6.209626,-2.71405 c 0.22461,-0.0982 0.48666,-0.0256 0.58754,0.16259 l 1.29117,2.40942 c 0.10088,0.18825 7.6e-4,0.41884 -0.22336,0.517 l -6.209624,2.71404 c -0.22461,0.0982 -0.48666,0.0256 -0.587537,-0.16259 l -1.291171,-2.40941 c -0.100875,-0.18825 -0.0012,-0.41884 0.223356,-0.517 z"
           style="opacity:0.98000004;fill:#1a1a1a;fill-opacity:1;stroke:none;stroke-width:0.07876671;stroke-miterlimit:4;stroke-dasharray:none;stroke-dashoffset:0;stroke-opacity:1"
           inkscape:connector-curvature="0" />
        <path
           inkscape:connector-curvature="0"
           style="opacity:0.98000004;fill:#1a1a1a;fill-opacity:1;stroke:none;stroke-width:0.07876671;stroke-miterlimit:4;stroke-dasharray:none;stroke-dashoffset:0;stroke-opacity:1"
           d="m 109.34773,120.3531 c -0.14844,-0.0611 -0.29839,-0.0114 -0.33636,0.11166 l -1.73218,5.61295 c -0.038,0.12302 0.0509,0.27126 0.19933,0.33243 l 11.15465,4.59722 c 0.14845,0.0611 0.29841,0.0114 0.33639,-0.11167 l 1.73216,-5.61294 c 0.038,-0.12302 -0.0509,-0.27127 -0.19932,-0.33244 z m 1.71943,2.21063 6.89338,2.84098 c 0.24933,0.10278 0.3987,0.35194 0.33493,0.55863 l -0.81649,2.64574 c -0.0638,0.20671 -0.31628,0.29002 -0.56523,0.18764 l -6.89337,-2.84098 c -0.24934,-0.10276 -0.3987,-0.35195 -0.33494,-0.55862 l 0.81648,-2.64576 c 0.0638,-0.20671 0.3157,-0.29059 0.56524,-0.18763 z"
           id="path2118" />
        <path
           inkscape:connector-curvature="0"
           style="opacity:0.98000004;fill:#1a1a1a;fill-opacity:1;stroke:none;stroke-width:0.07876671;stroke-miterlimit:4;stroke-dasharray:none;stroke-dashoffset:0;stroke-opacity:1"
           d="m 78.539827,130.8623 c -0.176632,0.0726 -0.254929,0.24286 -0.175603,0.38197 l 3.618821,6.34608 c 0.07933,0.1391 0.285291,0.19267 0.461923,0.12012 l 13.274942,-5.45244 c 0.17663,-0.0726 0.25493,-0.24287 0.1756,-0.38199 l -3.618818,-6.34606 c -0.07933,-0.13911 -0.285294,-0.19268 -0.46192,-0.12012 z m 3.394754,0.4651 8.203654,-3.36952 c 0.296742,-0.12187 0.64294,-0.0318 0.776211,0.20186 l 1.705785,2.99132 c 0.13327,0.23371 0.0014,0.51999 -0.295072,0.64186 l -8.20366,3.36952 c -0.296737,0.12188 -0.642937,0.0318 -0.776207,-0.20186 l -1.705791,-2.99132 c -0.133268,-0.23371 -0.0016,-0.51999 0.29508,-0.64186 z"
           id="path2120" />
        <rect
           style="opacity:0.98000004;fill:#1a1a1a;fill-opacity:1;stroke:none;stroke-width:0.07876668;stroke-miterlimit:4;stroke-dasharray:none;stroke-dashoffset:0;stroke-opacity:1"
           id="rect2122"
           width="9.0871639"
           height="2.6726952"
           x="27.659876"
           y="155.05052"
           ry="1.3363476"
           transform="rotate(-24.755427)" />
        <rect
           transform="matrix(0.99549269,0.09483835,-0.10714425,0.99424349,0,0)"
           ry="0.96041828"
           y="112.24698"
           x="116.35943"
           height="1.9208366"
           width="6.9372787"
           id="rect2124"
           style="opacity:0.98000004;fill:#1a1a1a;fill-opacity:1;stroke:none;stroke-width:0.0787697;stroke-miterlimit:4;stroke-dasharray:none;stroke-dashoffset:0;stroke-opacity:1" />
        <rect
           style="opacity:0.98000004;fill:#1a1a1a;fill-opacity:1;stroke:none;stroke-width:0.0789492;stroke-miterlimit:4;stroke-dasharray:none;stroke-dashoffset:0;stroke-opacity:1"
           id="rect2126"
           width="9.192688"
           height="1.7184926"
           x="173.2352"
           y="30.706638"
           ry="0.85924631"
           transform="matrix(0.80369871,0.59503645,-0.66944202,0.74286431,0,0)" />
        <rect
           transform="matrix(0.65739671,0.75354467,-0.81317342,0.58202147,0,0)"
           ry="0.85924631"
           y="-9.3595142"
           x="183.97536"
           height="1.7184926"
           width="9.192688"
           id="rect2128"
           style="opacity:0.98000004;fill:#1a1a1a;fill-opacity:1;stroke:none;stroke-width:0.0789492;stroke-miterlimit:4;stroke-dasharray:none;stroke-dashoffset:0;stroke-opacity:1" />
      </g>
      <rect
         transform="matrix(0.22497996,-0.97436339,0.99569986,0.09263799,0,0)"
         ry="0.36117208"
         y="166.22014"
         x="-137.63152"
         height="0.72234416"
         width="4.0808272"
         id="rect2132"
         style="opacity:0.98000004;fill:#1a1a1a;fill-opacity:1;stroke:none;stroke-width:0.07912295;stroke-miterlimit:4;stroke-dasharray:none;stroke-dashoffset:0;stroke-opacity:1"
         inkscape:transform-center-x="0.21383062"
         inkscape:transform-center-y="-0.27040306" />
      <rect
         inkscape:transform-center-y="-0.19977212"
         inkscape:transform-center-x="0.41003205"
         style="opacity:0.98000004;fill:#1a1a1a;fill-opacity:1;stroke:none;stroke-width:0.08417524;stroke-miterlimit:4;stroke-dasharray:none;stroke-dashoffset:0;stroke-opacity:1"
         id="rect2134"
         width="3.4247725"
         height="1.3800682"
         x="-171.28659"
         y="218.64998"
         ry="0.69003409"
         transform="matrix(0.51405481,-0.85775734,0.99935816,0.03582282,0,0)" />
      <rect
         transform="matrix(-0.73693422,-0.67596446,0.15278433,-0.98825955,0,0)"
         ry="0.50815904"
         y="-35.314381"
         x="-169.48927"
         height="1.0163181"
         width="2.3491464"
         id="rect2136"
         style="opacity:0.98000004;fill:#1a1a1a;fill-opacity:1;stroke:none;stroke-width:0.0863766;stroke-miterlimit:4;stroke-dasharray:none;stroke-dashoffset:0;stroke-opacity:1"
         inkscape:transform-center-x="0.16516007"
         inkscape:transform-center-y="0.27974251" />
      <rect
         inkscape:transform-center-y="0.27974251"
         inkscape:transform-center-x="0.16516007"
         style="opacity:0.98000004;fill:#1a1a1a;fill-opacity:1;stroke:none;stroke-width:0.0863766;stroke-miterlimit:4;stroke-dasharray:none;stroke-dashoffset:0;stroke-opacity:1"
         id="rect2138"
         width="2.3491464"
         height="1.0163181"
         x="-177.82831"
         y="-32.861485"
         ry="0.50815904"
         transform="matrix(-0.73693422,-0.67596446,0.15278433,-0.98825956,0,0)" />
    </g>
  </g>
</svg>
