<?xml version="1.0" encoding="UTF-8" standalone="no"?>
<!-- Created with Inkscape (http://www.inkscape.org/) -->

<svg
   xmlns:dc="http://purl.org/dc/elements/1.1/"
   xmlns:cc="http://creativecommons.org/ns#"
   xmlns:rdf="http://www.w3.org/1999/02/22-rdf-syntax-ns#"
   xmlns:svg="http://www.w3.org/2000/svg"
   xmlns="http://www.w3.org/2000/svg"
   xmlns:xlink="http://www.w3.org/1999/xlink"
   xmlns:sodipodi="http://sodipodi.sourceforge.net/DTD/sodipodi-0.dtd"
   xmlns:inkscape="http://www.inkscape.org/namespaces/inkscape"
   width="11in"
   height="8.5in"
   viewBox="0 0 279.4 215.9"
   version="1.1"
   id="svg8"
   inkscape:version="0.92.3 (unknown)"
   sodipodi:docname="homepagebackground.svg">
  <defs
     id="defs2">
    <linearGradient
       inkscape:collect="always"
       id="linearGradient7162">
      <stop
         style="stop-color:#ffffff;stop-opacity:1;"
         offset="0"
         id="stop7158" />
      <stop
         style="stop-color:#ffffff;stop-opacity:0;"
         offset="1"
         id="stop7160" />
    </linearGradient>
    <linearGradient
       inkscape:collect="always"
       id="linearGradient6242">
      <stop
         style="stop-color:#1513ad;stop-opacity:1;"
         offset="0"
         id="stop6238" />
      <stop
         style="stop-color:#1513ad;stop-opacity:0;"
         offset="1"
         id="stop6240" />
    </linearGradient>
    <linearGradient
       inkscape:collect="always"
       id="linearGradient1282">
      <stop
         style="stop-color:#ffffff;stop-opacity:1;"
         offset="0"
         id="stop1278" />
      <stop
         style="stop-color:#ffffff;stop-opacity:0;"
         offset="1"
         id="stop1280" />
    </linearGradient>
    <linearGradient
       inkscape:collect="always"
       id="linearGradient1212">
      <stop
         style="stop-color:#ff4d20;stop-opacity:1;"
         offset="0"
         id="stop1208" />
      <stop
         style="stop-color:#ff4d20;stop-opacity:0;"
         offset="1"
         id="stop1210" />
    </linearGradient>
    <linearGradient
       inkscape:collect="always"
       id="linearGradient1204">
      <stop
         style="stop-color:#ffcc00;stop-opacity:1;"
         offset="0"
         id="stop1200" />
      <stop
         style="stop-color:#ffcc00;stop-opacity:0;"
         offset="1"
         id="stop1202" />
    </linearGradient>
    <inkscape:perspective
       sodipodi:type="inkscape:persp3d"
       inkscape:vp_x="0 : 107.95 : 1"
       inkscape:vp_y="0 : 1000 : 0"
       inkscape:vp_z="279.4 : 107.95 : 1"
       inkscape:persp3d-origin="139.7 : 71.966667 : 1"
       id="perspective899" />
    <filter
       inkscape:collect="always"
       style="color-interpolation-filters:sRGB"
       id="filter1039"
       x="-0.1617"
       width="1.3234"
       y="-0.17481081"
       height="1.3496216">
      <feGaussianBlur
         inkscape:collect="always"
         stdDeviation="3.0559375"
         id="feGaussianBlur1041" />
    </filter>
    <filter
       inkscape:collect="always"
       style="color-interpolation-filters:sRGB"
       id="filter1121"
       x="-0.17883872"
       width="1.3576774"
       y="-0.15839999"
       height="1.3168">
      <feGaussianBlur
         inkscape:collect="always"
         stdDeviation="0.87312502"
         id="feGaussianBlur1123" />
    </filter>
    <linearGradient
       inkscape:collect="always"
       xlink:href="#linearGradient1204"
       id="linearGradient1206"
       x1="151.94644"
       y1="142.40775"
       x2="171.26164"
       y2="113.06891"
       gradientUnits="userSpaceOnUse"
       gradientTransform="translate(-45.995779,43.532993)" />
    <linearGradient
       inkscape:collect="always"
       xlink:href="#linearGradient1212"
       id="linearGradient1214"
       x1="235.29771"
       y1="122.80954"
       x2="227.91376"
       y2="126.38662"
       gradientUnits="userSpaceOnUse" />
    <filter
       inkscape:collect="always"
       style="color-interpolation-filters:sRGB"
       id="filter1272"
       x="-0.052848444"
       width="1.1056969"
       y="-0.070914201"
       height="1.1418284">
      <feGaussianBlur
         inkscape:collect="always"
         stdDeviation="0.68126531"
         id="feGaussianBlur1274" />
    </filter>
    <linearGradient
       inkscape:collect="always"
       xlink:href="#linearGradient1282"
       id="linearGradient1284"
       x1="102.80952"
       y1="154.125"
       x2="73.705353"
       y2="181.33928"
       gradientUnits="userSpaceOnUse"
       gradientTransform="matrix(0.72569686,0,0,0.78596594,168.53801,-7.6069886)" />
    <filter
       inkscape:collect="always"
       style="color-interpolation-filters:sRGB"
       id="filter1382"
       x="-0.21367186"
       width="1.4273437"
       y="-0.19516582"
       height="1.3903316">
      <feGaussianBlur
         inkscape:collect="always"
         stdDeviation="2.2466924"
         id="feGaussianBlur1384" />
    </filter>
    <linearGradient
       inkscape:collect="always"
       xlink:href="#linearGradient1212"
       id="linearGradient1406"
       gradientUnits="userSpaceOnUse"
       x1="235.29771"
       y1="122.80954"
       x2="227.91376"
       y2="126.38662" />
    <filter
       inkscape:collect="always"
       style="color-interpolation-filters:sRGB"
       id="filter1706"
       x="-0.18038568"
       width="1.3607714"
       y="-0.17961596"
       height="1.3592319">
      <feGaussianBlur
         inkscape:collect="always"
         stdDeviation="1.9102337"
         id="feGaussianBlur1708" />
    </filter>
    <filter
       inkscape:collect="always"
       style="color-interpolation-filters:sRGB"
       id="filter1740"
       x="-0.08061176"
       width="1.1612235"
       y="-0.11864936"
       height="1.2372987">
      <feGaussianBlur
         inkscape:collect="always"
         stdDeviation="0.47670282"
         id="feGaussianBlur1742" />
    </filter>
    <filter
       inkscape:collect="always"
       style="color-interpolation-filters:sRGB"
       id="filter2154"
       x="-0.031532978"
       width="1.063066"
       y="-0.10046379"
       height="1.2009276">
      <feGaussianBlur
         inkscape:collect="always"
         stdDeviation="13.837275"
         id="feGaussianBlur2156" />
    </filter>
    <filter
       inkscape:collect="always"
       style="color-interpolation-filters:sRGB"
       id="filter2170"
       x="-0.018342563"
       width="1.0366851"
       y="-0.034703755"
       height="1.0694075">
      <feGaussianBlur
         inkscape:collect="always"
         stdDeviation="2.2777535"
         id="feGaussianBlur2172" />
    </filter>
    <filter
       inkscape:collect="always"
       style="color-interpolation-filters:sRGB"
       id="filter2800"
       x="-0.6757551"
       width="2.3515102"
       y="-0.34409918"
       height="1.6881984">
      <feGaussianBlur
         inkscape:collect="always"
         stdDeviation="2.6153187"
         id="feGaussianBlur2802" />
    </filter>
    <filter
       inkscape:collect="always"
       style="color-interpolation-filters:sRGB"
       id="filter3026"
       x="-0.861"
       width="2.722"
       y="-1.148"
       height="3.296">
      <feGaussianBlur
         inkscape:collect="always"
         stdDeviation="0.47941469"
         id="feGaussianBlur3028" />
    </filter>
    <filter
       inkscape:collect="always"
       style="color-interpolation-filters:sRGB"
       id="filter3154"
       x="-0.98989933"
       width="2.9797987"
       y="-1.0046092"
       height="3.0092183">
      <feGaussianBlur
         inkscape:collect="always"
         stdDeviation="0.52370908"
         id="feGaussianBlur3156" />
    </filter>
    <filter
       inkscape:collect="always"
       style="color-interpolation-filters:sRGB"
       id="filter4138"
       x="-0.93960005"
       width="2.8792001"
       y="-0.93959995"
       height="2.8791999">
      <feGaussianBlur
         inkscape:collect="always"
         stdDeviation="0.44470306"
         id="feGaussianBlur4140" />
    </filter>
    <filter
       inkscape:collect="always"
       style="color-interpolation-filters:sRGB"
       id="filter4150"
       x="-0.77053832"
       width="2.5410766"
       y="-0.49773919"
       height="1.9954784">
      <feGaussianBlur
         inkscape:collect="always"
         stdDeviation="1.3886898"
         id="feGaussianBlur4152" />
    </filter>
    <filter
       inkscape:collect="always"
       style="color-interpolation-filters:sRGB"
       id="filter4260"
       x="-0.019030255"
       width="1.0380605"
       y="-0.33248524"
       height="1.6649705">
      <feGaussianBlur
         inkscape:collect="always"
         stdDeviation="2.3408656"
         id="feGaussianBlur4262" />
    </filter>
    <filter
       inkscape:collect="always"
       style="color-interpolation-filters:sRGB"
       id="filter4266"
       x="-0.025373673"
       width="1.0507473"
       y="-0.44331365"
       height="1.8866273">
      <feGaussianBlur
         inkscape:collect="always"
         stdDeviation="3.1211542"
         id="feGaussianBlur4268" />
    </filter>
    <filter
       inkscape:collect="always"
       style="color-interpolation-filters:sRGB"
       id="filter4276"
       x="-0.031717092"
       width="1.0634342"
       y="-0.55414206"
       height="2.1082841">
      <feGaussianBlur
         inkscape:collect="always"
         stdDeviation="3.9014427"
         id="feGaussianBlur4278" />
    </filter>
    <filter
       inkscape:collect="always"
       style="color-interpolation-filters:sRGB"
       id="filter4648"
       x="-0.72457603"
       width="2.4491521"
       y="-0.16498487"
       height="1.3299697">
      <feGaussianBlur
         inkscape:collect="always"
         stdDeviation="2.2520946"
         id="feGaussianBlur4650" />
    </filter>
    <filter
       inkscape:collect="always"
       style="color-interpolation-filters:sRGB"
       id="filter5272"
       x="-0.51700221"
       width="2.0340044"
       y="-0.51700216"
       height="2.0340043">
      <feGaussianBlur
         inkscape:collect="always"
         stdDeviation="0.24469184"
         id="feGaussianBlur5274" />
    </filter>
    <filter
       inkscape:collect="always"
       style="color-interpolation-filters:sRGB"
       id="filter6234"
       x="-0.16881079"
       width="1.3376216"
       y="-0.079398311"
       height="1.1587966">
      <feGaussianBlur
         inkscape:collect="always"
         stdDeviation="0.52167668"
         id="feGaussianBlur6236" />
    </filter>
    <linearGradient
       inkscape:collect="always"
       xlink:href="#linearGradient6242"
       id="linearGradient6244"
       x1="131.55144"
       y1="232.92212"
       x2="133.15526"
       y2="219.02411"
       gradientUnits="userSpaceOnUse"
       gradientTransform="translate(-18.723518,-13.103486)" />
    <filter
       inkscape:collect="always"
       style="color-interpolation-filters:sRGB"
       id="filter6862"
       x="-0.8817404"
       width="2.7634808"
       y="-1.0162592"
       height="3.0325184">
      <feGaussianBlur
         inkscape:collect="always"
         stdDeviation="0.46632537"
         id="feGaussianBlur6864" />
    </filter>
    <filter
       inkscape:collect="always"
       style="color-interpolation-filters:sRGB"
       id="filter7048"
       x="-1.2228316"
       width="3.4456632"
       y="-1.3190513"
       height="3.6381026">
      <feGaussianBlur
         inkscape:collect="always"
         stdDeviation="0.42799174"
         id="feGaussianBlur7050" />
    </filter>
    <filter
       inkscape:collect="always"
       style="color-interpolation-filters:sRGB"
       id="filter7152"
       x="-0.75084093"
       width="2.5016819"
       y="-0.55075546"
       height="2.1015109">
      <feGaussianBlur
         inkscape:collect="always"
         stdDeviation="0.65099029"
         id="feGaussianBlur7154" />
    </filter>
    <linearGradient
       inkscape:collect="always"
       xlink:href="#linearGradient7162"
       id="linearGradient7164"
       x1="49.136909"
       y1="278.85715"
       x2="200.80122"
       y2="104.60711"
       gradientUnits="userSpaceOnUse" />
    <filter
       inkscape:collect="always"
       style="color-interpolation-filters:sRGB"
       id="filter7214"
       x="-0.11849466"
       width="1.2369893"
       y="-0.14897987"
       height="1.2979597">
      <feGaussianBlur
         inkscape:collect="always"
         stdDeviation="10.487894"
         id="feGaussianBlur7216" />
    </filter>
    <filter
       inkscape:collect="always"
       style="color-interpolation-filters:sRGB"
       id="filter7329"
       x="-0.11424069"
       width="1.2284814"
       y="-0.29519794"
       height="1.5903959">
      <feGaussianBlur
         inkscape:collect="always"
         stdDeviation="2.9056715"
         id="feGaussianBlur7331" />
    </filter>
    <filter
       inkscape:collect="always"
       style="color-interpolation-filters:sRGB"
       id="filter7385"
       x="-0.14296742"
       width="1.2859348"
       y="-0.36942782"
       height="1.7388556">
      <feGaussianBlur
         inkscape:collect="always"
         stdDeviation="3.6363258"
         id="feGaussianBlur7387" />
    </filter>
    <filter
       inkscape:collect="always"
       style="color-interpolation-filters:sRGB"
       id="filter7461"
       x="-0.15830453"
       width="1.3166091"
       y="-0.31075314"
       height="1.6215063">
      <feGaussianBlur
         inkscape:collect="always"
         stdDeviation="3.6982211"
         id="feGaussianBlur7463" />
    </filter>
    <filter
       inkscape:collect="always"
       style="color-interpolation-filters:sRGB"
       id="filter7509"
       x="-0.14895279"
       width="1.2979056"
       y="-0.34763217"
       height="1.6952643">
      <feGaussianBlur
         inkscape:collect="always"
         stdDeviation="3.6909285"
         id="feGaussianBlur7511" />
    </filter>
    <filter
       inkscape:collect="always"
       style="color-interpolation-filters:sRGB"
       id="filter7525"
       x="-0.029535194"
       width="1.0590704"
       y="-0.020212056"
       height="1.0404241">
      <feGaussianBlur
         inkscape:collect="always"
         stdDeviation="0.16791975"
         id="feGaussianBlur7527" />
    </filter>
    <filter
       inkscape:collect="always"
       style="color-interpolation-filters:sRGB"
       id="filter7614"
       x="-0.024332655"
       width="1.0486653"
       y="-0.21514887"
       height="1.4302977">
      <feGaussianBlur
         inkscape:collect="always"
         stdDeviation="3.3478311"
         id="feGaussianBlur7616" />
    </filter>
    <filter
       inkscape:collect="always"
       style="color-interpolation-filters:sRGB"
       id="filter7642"
       x="-0.1093017"
       width="1.2186034"
       y="-0.065054441"
       height="1.1301089">
      <feGaussianBlur
         inkscape:collect="always"
         stdDeviation="1.8069405"
         id="feGaussianBlur7644" />
    </filter>
    <filter
       inkscape:collect="always"
       style="color-interpolation-filters:sRGB"
       id="filter7690"
       x="-0.032152319"
       width="1.0643046"
       y="-0.28213245"
       height="1.5642649">
      <feGaussianBlur
         inkscape:collect="always"
         stdDeviation="4.1789153"
         id="feGaussianBlur7692" />
    </filter>
    <filter
       inkscape:collect="always"
       style="color-interpolation-filters:sRGB"
       id="filter7722"
       x="-0.056565314"
       width="1.1131306"
       y="-0.09248686"
       height="1.1849737">
      <feGaussianBlur
         inkscape:collect="always"
         stdDeviation="2.5355915"
         id="feGaussianBlur7724" />
    </filter>
    <filter
       inkscape:collect="always"
       style="color-interpolation-filters:sRGB"
       id="filter7909"
       x="-0.076202266"
       width="1.1524045"
       y="-0.09357553"
       height="1.1871511">
      <feGaussianBlur
         inkscape:collect="always"
         stdDeviation="1.2710729"
         id="feGaussianBlur7911" />
    </filter>
  </defs>
  <sodipodi:namedview
     id="base"
     pagecolor="#ffffff"
     bordercolor="#666666"
     borderopacity="1.0"
     inkscape:pageopacity="0.0"
     inkscape:pageshadow="2"
     inkscape:zoom="0.7"
     inkscape:cx="531.76553"
     inkscape:cy="375.35212"
     inkscape:document-units="mm"
     inkscape:current-layer="layer1"
     showgrid="false"
     units="in"
     inkscape:window-width="1327"
     inkscape:window-height="744"
     inkscape:window-x="39"
     inkscape:window-y="24"
     inkscape:window-maximized="1" />
  <metadata
     id="metadata5">
    <rdf:RDF>
      <cc:Work
         rdf:about="">
        <dc:format>image/svg+xml</dc:format>
        <dc:type
           rdf:resource="http://purl.org/dc/dcmitype/StillImage" />
        <dc:title></dc:title>
      </cc:Work>
    </rdf:RDF>
  </metadata>
  <g
     inkscape:label="Layer 1"
     inkscape:groupmode="layer"
     id="layer1"
     transform="translate(0,-81.1)">
    <rect
       style="opacity:0.67;fill:#7e1ab7;fill-opacity:0.79310346;stroke:none;stroke-width:0.26499999;stroke-miterlimit:4;stroke-dasharray:none;stroke-opacity:0"
       id="rect1534"
       width="278.38174"
       height="217.95067"
       x="0.37797621"
       y="81.553574" />
    <path
       style="opacity:0.95;fill:url(#linearGradient7164);fill-opacity:1;stroke:none;stroke-width:1.75007451;stroke-miterlimit:4;stroke-dasharray:none;stroke-opacity:1;filter:url(#filter7214)"
       id="path7156"
       sodipodi:type="arc"
       sodipodi:cx="137.9613"
       sodipodi:cy="188.70982"
       sodipodi:rx="106.21131"
       sodipodi:ry="84.477676"
       sodipodi:start="0"
       sodipodi:end="6.2567436"
       sodipodi:open="true"
       d="M 244.17262,188.70982 A 106.21131,84.477676 0 0 1 138.6634,273.18565 106.21131,84.477676 0 0 1 31.759275,189.82666 106.21131,84.477676 0 0 1 135.85514,104.24876 106.21131,84.477676 0 0 1 244.13549,186.47635" />
    <path
       style="opacity:0.98000004;fill:#006f10;fill-opacity:1;stroke:none;stroke-width:0.26458332px;stroke-linecap:butt;stroke-linejoin:miter;stroke-opacity:1;filter:url(#filter1706)"
       d="m 168.11253,214.54735 c 0,0 -12.43411,-0.14659 -11.76594,-1.3493 0.66817,-1.20271 3.03396,-10.10503 3.03396,-10.10503 l 12.83299,-9.49896 9.52973,-2.70006 c 0,0 16.97161,2.93997 17.37252,4.00904 0.4009,1.06908 -1.46998,13.22984 -1.46998,13.22984 0,0 -12.42804,4.27632 -13.76438,4.94449 -1.33635,0.66818 -11.62622,-1.33635 -11.62622,-1.33635 l -2.00453,3.34087 z"
       id="path1632"
       inkscape:connector-curvature="0"
       sodipodi:nodetypes="csccccccccc"
       transform="matrix(1.3556742,0,0,0.69525327,-57.533697,65.562005)" />
    <path
       style="fill:#13128c;fill-opacity:1;stroke:none;stroke-width:0.26458332px;stroke-linecap:butt;stroke-linejoin:miter;stroke-opacity:1;filter:url(#filter2170)"
       d="M -0.15599741,234.59499 C 7.7915208,255.75646 -15.116468,167.4289 58.354957,209.26844 c -0.866542,7.78605 33.584973,71.51139 53.536943,-1.45466 -4.56742,33.29518 57.34068,70.35594 30.74357,20.10478 2.32186,-29.61979 47.68941,-21.99483 80.94559,-37.69643 9.95689,36.45671 38.72704,-25.1039 38.72704,-25.1039 4.07417,34.73389 10.6724,32.12623 18.26354,14.82924 L 291.78333,289.39761 -0.42158594,322.64033 -6.2452589,237.65315 Z"
       id="path1536"
       inkscape:connector-curvature="0"
       sodipodi:nodetypes="ccccccccccc" />
    <path
       style="opacity:0.17000002;fill:#ffffff;fill-opacity:1;stroke:none;stroke-width:0.26458332px;stroke-linecap:butt;stroke-linejoin:miter;stroke-opacity:1;filter:url(#filter7722)"
       d="m 132.66964,118.97321 -17.76488,64.63393 39.6875,-1.13393 -12.09524,-65.38988 z"
       id="path7554"
       inkscape:connector-curvature="0"
       transform="matrix(-0.27041602,0.02353318,-0.36081451,-1.4467099,301.00435,295.52725)" />
    <path
       transform="matrix(0.1494554,0.3324138,-1.7313571,1.0726014,401.10997,-52.091156)"
       inkscape:connector-curvature="0"
       id="path7568"
       d="m 132.66964,118.97321 -17.76488,64.63393 39.6875,-1.13393 -12.09524,-65.38988 z"
       style="opacity:0.17000002;fill:#ffffff;fill-opacity:1;stroke:none;stroke-width:0.26458332px;stroke-linecap:butt;stroke-linejoin:miter;stroke-opacity:1;filter:url(#filter7614)" />
    <path
       style="opacity:0.91000001;fill:url(#linearGradient1406);fill-opacity:1;stroke:#83a75e;stroke-width:0.26499999;stroke-miterlimit:4;stroke-dasharray:none;stroke-opacity:0;filter:url(#filter1121)"
       id="path953"
       sodipodi:type="arc"
       sodipodi:cx="235.29018"
       sodipodi:cy="122.94197"
       sodipodi:rx="3.758708"
       sodipodi:ry="3.3965638"
       sodipodi:start="0"
       sodipodi:end="6.2567447"
       sodipodi:open="true"
       d="m 239.04888,122.94197 a 3.758708,3.3965638 0 0 1 -3.73386,3.39649 3.758708,3.3965638 0 0 1 -3.78322,-3.35159 3.758708,3.3965638 0 0 1 3.68384,-3.4408 3.758708,3.3965638 0 0 1 3.83193,3.3061"
       transform="matrix(-8.1629695,3.4156674,-4.5189304,-8.4386476,2695.1451,359.21914)" />
    <path
       style="opacity:0.17000002;fill:#ffffff;fill-opacity:1;stroke:none;stroke-width:0.26458332px;stroke-linecap:butt;stroke-linejoin:miter;stroke-opacity:1;filter:url(#filter7642)"
       d="m 132.66964,118.97321 -17.76488,64.63393 39.6875,-1.13393 -12.09524,-65.38988 z"
       id="path7570"
       inkscape:connector-curvature="0"
       transform="matrix(0.26902104,0.036143,0.03587003,1.4905938,182.2426,-55.606136)" />
    <g
       id="g1186"
       transform="matrix(-0.89108366,-0.75152049,0.68942142,-0.81745231,204.66251,351.09858)"
       style="opacity:0.63999999;fill:#ffcc00;fill-opacity:1">
      <path
         d="m 137.69031,174.07083 a 22.678572,20.977678 0 0 1 -22.1873,20.97276 22.678572,20.977678 0 0 1 -23.148556,-20.06413 22.678572,20.977678 0 0 1 21.184406,-21.84202 22.678572,20.977678 0 0 1 24.06636,19.11783"
         sodipodi:open="true"
         sodipodi:end="6.1965297"
         sodipodi:start="0"
         sodipodi:ry="20.977678"
         sodipodi:rx="22.678572"
         sodipodi:cy="174.07083"
         sodipodi:cx="115.01174"
         sodipodi:type="arc"
         id="path973"
         style="fill:url(#linearGradient1206);fill-opacity:1;stroke:#83a75e;stroke-width:0.26499999;stroke-miterlimit:4;stroke-dasharray:none;stroke-opacity:0;filter:url(#filter1039)" />
    </g>
    <path
       transform="matrix(0.1606237,-0.12105495,0.81187314,0.36791104,117.77679,103.71888)"
       inkscape:connector-curvature="0"
       id="path7572"
       d="m 132.66964,118.97321 -17.76488,64.63393 39.6875,-1.13393 -12.09524,-65.38988 z"
       style="opacity:0.17000002;fill:#ffffff;fill-opacity:1;stroke:none;stroke-width:0.26458332px;stroke-linecap:butt;stroke-linejoin:miter;stroke-opacity:1;filter:url(#filter7690)" />
    <g
       id="g1388"
       transform="matrix(0.9458515,0,0,0.89148468,10.248357,13.106357)">
      <path
         transform="matrix(1.5078715,0,0,2.1253177,-17.009009,-167.59833)"
         d="m 173.83166,136.9744 a 15.46911,11.528275 0 0 1 -15.13402,11.52557 15.46911,11.528275 0 0 1 -15.78968,-11.02624 15.46911,11.528275 0 0 1 14.44993,-12.00327 15.46911,11.528275 0 0 1 16.41572,10.5062"
         sodipodi:open="true"
         sodipodi:end="6.1965297"
         sodipodi:start="0"
         sodipodi:ry="11.528275"
         sodipodi:rx="15.46911"
         sodipodi:cy="136.9744"
         sodipodi:cx="158.36255"
         sodipodi:type="arc"
         id="path1051"
         style="opacity:0.81999966;fill:#f8de1b;fill-opacity:1;stroke:#83a75e;stroke-width:0.31755859;stroke-miterlimit:4;stroke-dasharray:none;stroke-opacity:0;filter:url(#filter1272)" />
      <path
         d="m 245.06661,122.59083 a 12.617622,13.814053 0 0 1 -12.34429,13.81081 12.617622,13.814053 0 0 1 -12.87911,-13.21247 12.617622,13.814053 0 0 1 11.78632,-14.38323 12.617622,13.814053 0 0 1 13.38974,12.58932"
         sodipodi:open="true"
         sodipodi:end="6.1965297"
         sodipodi:start="0"
         sodipodi:ry="13.814053"
         sodipodi:rx="12.617622"
         sodipodi:cy="122.59083"
         sodipodi:cx="232.44899"
         sodipodi:type="arc"
         id="path1276"
         style="opacity:0.91000001;fill:url(#linearGradient1284);fill-opacity:1;stroke:#83a75e;stroke-width:0.20013605;stroke-miterlimit:4;stroke-dasharray:none;stroke-opacity:0;filter:url(#filter1382)" />
    </g>
    <path
       id="path1437"
       transform="matrix(0.26458333,0,0,0.26458333,0,81.1)"
       style="fill:#3a3ddb;fill-opacity:1;stroke:none;stroke-width:1.14320087px;stroke-linecap:butt;stroke-linejoin:miter;stroke-opacity:1;opacity:0.87;filter:url(#filter2154)"
       d="M 341.61719,494.90625 C 254.04736,495.65429 112.21098,639.93493 103.3457,640.23047 93.144471,664.91135 5.9440801,644.76082 0.4140625,561.81055 l 0.51757812,142.875 c 1.07219868,3.73394 0.52745968,7.65188 0.45117188,11.48047 0.1199798,1.39224 -0.040152,2.79035 -0.39453125,4.14453 L 1.3261719,813.83398 1053.5801,825.46484 1051.873,525.70117 c 0,21.26283 -107.48019,21.12943 -116.67378,-17.15234 -23.5773,-32.88665 -315.71008,56.51269 -295.39063,134.15039 -45.37205,38.99747 -322.72678,112.85789 -235.64453,-90.04688 -10.19624,-42.29526 -33.35693,-57.99544 -62.54687,-57.74609 z" />
    <path
       id="path1457"
       style="fill:#171798;fill-opacity:1;stroke:none;stroke-width:0.14384739px;stroke-linecap:butt;stroke-linejoin:miter;stroke-opacity:1;filter:url(#filter4260)"
       d="M 286.22077,280.17172 C 165.78678,289.68368 52.731225,296.84898 -0.28525538,284.92 v 0.59357 0.83003 0.68553 0.82025 c 0.009387,-10e-4 0.0163409,-0.003 0.0289388,-0.003 0.21801635,-0.004 0.27145922,0.10192 0.37930502,0.15809 0.58814321,0.30632 0.30996167,0.19917 0.53691812,0.56975 0.0100564,0.0164 0.0169044,-0.0329 0.0253214,-0.0495 0.33236854,0.30253 0.17241079,0.62178 0.15141195,0.93328 0.063733,0.21859 -0.1704943,0.4388 -0.52193196,0.63008 -0.51437734,0.27995 -0.31449151255,0.11667 -0.4795573,0.26211 0.0338118,-0.0145 0.10915391,-0.061 0.10128583,-0.0436 -0.0375311,0.0833 -0.11979926,0.16416 -0.19171957,0.24562 0.009788,0.0393 0.003554,0.0776 -0.0299723,0.11348 0.001595,0.22985 8.1492e-4,0.45981 -0.002066,0.68966 -0.001289,0.27555 0.0150733,0.55112 0.00155,0.82667 -0.022511,0.28222 -0.0481468,0.56436 0.0971517,0.84484 -0.0632437,0.2766 0.0208635,0.25505 -0.36741939,0.51674 -0.029294,0.0198 -0.074569,0.0558 -0.1188558,0.0852 -2.778e-4,10e-4 -2.258e-4,0.002 -5.159e-4,0.003 0.034215,0.35977 0.18166137,0.73165 -0.085783,1.08572 0.062212,0.016 0.1230278,0.0326 0.1782837,0.0507 0.80842577,0.265 0.66218025,0.25102 1.02681064,0.58548 0.0117871,0.10832 0.10066339,0.21068 0.12143961,0.31909 0.0483541,0.25231 -0.0874673,0.50426 -0.21445719,0.75411 57.83683602,0.55551 283.09408702,0.71157 284.73608702,0.6145 1.8899,-0.11173 1.1338,-16.87026 1.1338,-16.87026 z m -294.8212799,2.56966 c 0,0 -0.00691,0.0328 -0.00723,0.0344 0.017605,-0.007 0.033797,-0.0141 0.051676,-0.0211 -0.014666,-0.004 -0.029788,-0.009 -0.044441,-0.0132 z m -0.2366783,1.07258 c -0.00329,0.0147 -0.0075,0.032 -0.010853,0.0471 0.020508,0.0254 0.035852,0.0527 0.068729,0.0744 -0.011255,-0.0547 -0.031514,-0.0935 -0.057878,-0.12144 z m 8.54573165,4.15777 c -0.003425,0.0344 -0.00489,0.0617 0.006201,0.0407 0.006098,-0.0116 0.001434,-0.0258 -0.006201,-0.0407 z M -1.2309341,294.58 c -0.00971,0.003 -0.017615,0.0143 -0.00672,0.0176 0.045964,0.0136 0.09465,0.0263 0.1441772,0.0388 -0.041753,-0.019 -0.083453,-0.038 -0.1276408,-0.0564 -0.00298,-10e-4 -0.00658,-10e-4 -0.00982,0 z m -2.1802286,1.73857 c -0.108729,0.0232 -0.2179551,0.0463 -0.328662,0.0669 0.089031,10e-4 0.2069526,0.002 0.2971392,0.003 0.00953,-0.0233 0.020492,-0.0466 0.031523,-0.07 z"
       inkscape:connector-curvature="0" />
    <path
       style="opacity:1;fill:#f2f2f2;fill-opacity:1;stroke:none;stroke-width:0.47018;stroke-miterlimit:4;stroke-dasharray:none;stroke-opacity:1;filter:url(#filter7152)"
       id="path2174"
       sodipodi:type="arc"
       sodipodi:cx="115.69904"
       sodipodi:cy="227.7256"
       sodipodi:rx="1.0404179"
       sodipodi:ry="1.4183942"
       sodipodi:start="0"
       sodipodi:end="6.2567436"
       sodipodi:open="true"
       d="m 116.73946,227.7256 a 1.0404179,1.4183942 0 0 1 -1.03354,1.41836 1.0404179,1.4183942 0 0 1 -1.0472,-1.39961 1.0404179,1.4183942 0 0 1 1.01969,-1.43686 1.0404179,1.4183942 0 0 1 1.06069,1.38061"
       transform="matrix(1.7260696,0.36641626,-0.60681398,2.8585062,54.415594,-487.9891)" />
    <path
       style="opacity:0.87000002;fill:#f2f2f2;fill-opacity:1;stroke:none;stroke-width:0.21982148;stroke-miterlimit:4;stroke-dasharray:none;stroke-opacity:1;filter:url(#filter4138)"
       id="path2178"
       sodipodi:type="arc"
       sodipodi:cx="113.35568"
       sodipodi:cy="204.69179"
       sodipodi:rx="0.56794769"
       sodipodi:ry="0.56794775"
       sodipodi:start="0"
       sodipodi:end="6.2567436"
       sodipodi:open="true"
       d="m 113.92363,204.69179 a 0.56794769,0.56794775 0 0 1 -0.56419,0.56793 0.56794769,0.56794775 0 0 1 -0.57166,-0.56042 0.56794769,0.56794775 0 0 1 0.55664,-0.57535 0.56794769,0.56794775 0 0 1 0.57901,0.55282" />
    <path
       style="opacity:0.87000002;fill:#0000ff;fill-opacity:1;stroke:none;stroke-width:0.26499999;stroke-miterlimit:4;stroke-dasharray:none;stroke-opacity:1;filter:url(#filter3026)"
       id="path2526"
       sodipodi:type="arc"
       sodipodi:cx="118.80131"
       sodipodi:cy="198.47777"
       sodipodi:rx="0.66817379"
       sodipodi:ry="0.50113034"
       sodipodi:start="0"
       sodipodi:end="6.2567436"
       sodipodi:open="true"
       d="m 119.46948,198.47777 a 0.66817379,0.50113034 0 0 1 -0.66376,0.50112 0.66817379,0.50113034 0 0 1 -0.67253,-0.4945 0.66817379,0.50113034 0 0 1 0.65487,-0.50765 0.66817379,0.50113034 0 0 1 0.68119,0.48778"
       transform="matrix(0.52821375,0.10812342,-0.29034425,1.4184144,113.96752,-93.643976)" />
    <path
       style="opacity:0.87000002;fill:#0000ff;fill-opacity:1;stroke:none;stroke-width:0.26499999;stroke-miterlimit:4;stroke-dasharray:none;stroke-opacity:1;filter:url(#filter3154)"
       id="path2528"
       sodipodi:type="arc"
       sodipodi:cx="118.16644"
       sodipodi:cy="201.82784"
       sodipodi:rx="0.63486344"
       sodipodi:ry="0.62556756"
       sodipodi:start="0"
       sodipodi:end="6.2567436"
       sodipodi:open="true"
       d="m 118.80131,201.82784 a 0.63486344,0.62556756 0 0 1 -0.63067,0.62555 0.63486344,0.62556756 0 0 1 -0.63901,-0.61728 0.63486344,0.62556756 0 0 1 0.62222,-0.63372 0.63486344,0.62556756 0 0 1 0.64723,0.60891"
       transform="matrix(0.63766753,0.5100465,-0.5224735,1.6210504,146.1712,-188.06209)" />
    <path
       style="opacity:0.87000002;fill:#0000ff;fill-opacity:1;stroke:none;stroke-width:0.26499999;stroke-miterlimit:4;stroke-dasharray:none;stroke-opacity:1;filter:url(#filter4150)"
       id="path2530"
       sodipodi:type="arc"
       sodipodi:cx="205.42674"
       sodipodi:cy="98.695877"
       sodipodi:rx="0.52347845"
       sodipodi:ry="3.9512298"
       sodipodi:start="0"
       sodipodi:end="6.0491737"
       sodipodi:open="true"
       d="m 205.95022,98.695877 a 0.52347845,3.9512298 0 0 1 -0.49287,3.944473 0.52347845,3.9512298 0 0 1 -0.55051,-3.48321 0.52347845,3.9512298 0 0 1 0.4285,-4.351793 0.52347845,3.9512298 0 0 1 0.60061,2.974312"
       transform="rotate(32.397532,-26.163217,-3.4984136)" />
    <path
       style="fill:#00ffff;stroke:none;stroke-width:0.26458332px;stroke-linecap:butt;stroke-linejoin:miter;stroke-opacity:1;filter:url(#filter2800)"
       d="m 130.6948,206.19518 1.26953,-7.01583 3.74177,-2.87315 -5.67948,-3.34087 c 0,0 -3.67495,3.94223 -3.60814,4.40995 0.0668,0.46772 1.06908,8.0849 1.06908,8.0849 l 4.07586,5.7463 z"
       id="path2578"
       inkscape:connector-curvature="0"
       transform="matrix(1.0356834,1.0748466,-0.90491028,1.4042673,206.09743,-199.504)" />
    <path
       transform="matrix(0.99779844,0.89134576,-0.87180896,1.1645268,129.6286,-123.03712)"
       inkscape:connector-curvature="0"
       id="path4222"
       d="m 130.6948,206.19518 1.26953,-7.01583 3.74177,-2.87315 -5.67948,-3.34087 c 0,0 -3.67495,3.94223 -3.60814,4.40995 0.0668,0.46772 1.06908,8.0849 1.06908,8.0849 l 4.07586,5.7463 z"
       style="fill:#08cccc;stroke:none;stroke-width:0.26458332px;stroke-linecap:butt;stroke-linejoin:miter;stroke-opacity:1;filter:url(#filter2800);fill-opacity:1" />
    <path
       style="fill:#08cccc;fill-opacity:1;stroke:none;stroke-width:0.26458332px;stroke-linecap:butt;stroke-linejoin:miter;stroke-opacity:1;filter:url(#filter2800)"
       d="m 130.6948,206.19518 1.26953,-7.01583 3.74177,-2.87315 -5.67948,-3.34087 c 0,0 -3.67495,3.94223 -3.60814,4.40995 0.0668,0.46772 1.06908,8.0849 1.06908,8.0849 l 4.07586,5.7463 z"
       id="path4224"
       inkscape:connector-curvature="0"
       transform="matrix(-0.34385366,0.09261298,0.77685485,1.0656635,10.28288,17.122167)" />
    <path
       transform="matrix(0.33790961,-0.1042653,-0.83064174,-0.96416971,231.34448,470.9808)"
       inkscape:connector-curvature="0"
       id="path4226"
       d="m 104.8038,201.35059 5.40986,-6.92719 25.49244,1.8828 -5.67948,-3.34087 c 0,0 -19.87977,0.99035 -19.81296,1.45807 0.0668,0.46772 -23.788859,5.48073 -23.788859,5.48073 l 40.332469,17.3104 z"
       style="fill:#08cccc;fill-opacity:1;stroke:none;stroke-width:0.26458332px;stroke-linecap:butt;stroke-linejoin:miter;stroke-opacity:1;filter:url(#filter2800)"
       sodipodi:nodetypes="cccccccc" />
    <path
       inkscape:connector-curvature="0"
       d="m 285.3491,273.82511 c -120.43399,9.51196 -233.48955,16.67726 -286.5060305,4.74828 v 0.59357 0.83003 0.68553 0.82025 c 0.00939,-10e-4 0.016341,-0.003 0.028939,-0.003 0.21801636,-0.004 0.27145923,0.10192 0.37930503,0.15809 0.58814321,0.30632 0.30996167,0.19917 0.53691812,0.56975 0.0100564,0.0164 0.0169044,-0.0329 0.0253214,-0.0495 0.3323685,0.30253 0.17241079,0.62178 0.15141195,0.93328 0.063733,0.21859 -0.1704943,0.4388 -0.52193196,0.63008 -0.51437734,0.27995 -0.31449151,0.11667 -0.47955734,0.26211 0.033812,-0.0145 0.10915395,-0.061 0.10128587,-0.0436 -0.0375311,0.0833 -0.11979927,0.16416 -0.19171957,0.24562 0.00979,0.0393 0.00355,0.0776 -0.029972,0.11348 0.0016,0.22985 8.149e-4,0.45981 -0.00207,0.68966 -0.00129,0.27555 0.015073,0.55112 0.00155,0.82667 -0.022511,0.28222 -0.048147,0.56436 0.097152,0.84484 -0.063244,0.2766 0.020864,0.25505 -0.3674194,0.51674 -0.029294,0.0198 -0.074569,0.0558 -0.1188558,0.0852 -2.778e-4,10e-4 -2.258e-4,0.002 -5.159e-4,0.003 0.034215,0.35977 0.1816614,0.73165 -0.085783,1.08572 0.062212,0.016 0.1230278,0.0326 0.1782837,0.0507 0.80842578,0.265 0.66218026,0.25102 1.02681065,0.58548 0.0117871,0.10832 0.10066339,0.21068 0.12143961,0.31909 0.0483541,0.25231 -0.0874673,0.50426 -0.21445719,0.75411 57.83683613,0.55551 283.09409213,0.71157 284.73609213,0.6145 1.8899,-0.11173 1.1338,-16.87026 1.1338,-16.87026 z m -294.821285,2.56966 c 0,0 -0.00691,0.0328 -0.00723,0.0344 0.017605,-0.007 0.033797,-0.0141 0.051676,-0.0211 -0.014666,-0.004 -0.029788,-0.009 -0.044441,-0.0132 z m -0.2366783,1.07258 c -0.00329,0.0147 -0.0075,0.032 -0.010853,0.0471 0.020508,0.0254 0.035852,0.0527 0.068729,0.0744 -0.011255,-0.0547 -0.031514,-0.0935 -0.057878,-0.12144 z m 8.5457316,4.15777 c -0.00342,0.0344 -0.00489,0.0617 0.0062,0.0407 0.0061,-0.0116 0.00143,-0.0258 -0.0062,-0.0407 z m -0.9394775,6.60827 c -0.00971,0.003 -0.017615,0.0143 -0.00672,0.0176 0.045964,0.0136 0.09465,0.0263 0.1441772,0.0388 -0.041753,-0.019 -0.083453,-0.038 -0.1276408,-0.0564 -0.00298,-10e-4 -0.00658,-10e-4 -0.00982,0 z m -2.1802286,1.73857 c -0.108729,0.0232 -0.2179551,0.0463 -0.328662,0.0669 0.089031,10e-4 0.2069526,0.002 0.2971392,0.003 0.00953,-0.0233 0.020492,-0.0466 0.031523,-0.07 z"
       style="fill:#082bb1;fill-opacity:1;stroke:none;stroke-width:0.14384739px;stroke-linecap:butt;stroke-linejoin:miter;stroke-opacity:1;filter:url(#filter4266)"
       id="path4264" />
    <path
       id="path4270"
       style="fill:#2149e1;fill-opacity:1;stroke:none;stroke-width:0.14384739px;stroke-linecap:butt;stroke-linejoin:miter;stroke-opacity:1;opacity:0.9;filter:url(#filter4276)"
       d="M 284.81456,264.33704 C 164.38057,273.849 51.325011,281.0143 -1.6914696,269.08532 v 0.59357 0.83003 0.68553 0.82025 c 0.00939,-0.001 0.016341,-0.003 0.028939,-0.003 0.2180164,-0.004 0.2714593,0.10192 0.3793051,0.15809 0.58814318,0.30632 0.30996164,0.19917 0.53691809,0.56975 0.0100564,0.0164 0.0169044,-0.0329 0.0253214,-0.0495 0.3323685,0.30253 0.17241079,0.62178 0.15141195,0.93328 0.063733,0.21859 -0.1704943,0.4388 -0.52193194,0.63008 -0.5143774,0.27995 -0.3144915,0.11667 -0.4795574,0.26211 0.033812,-0.0145 0.109154,-0.061 0.1012859,-0.0436 -0.037531,0.0833 -0.1197993,0.16416 -0.1917196,0.24562 0.00979,0.0393 0.00355,0.0776 -0.029972,0.11348 0.0016,0.22985 8.149e-4,0.45981 -0.00207,0.68966 -0.00129,0.27555 0.015073,0.55112 0.00155,0.82667 -0.022511,0.28222 -0.048147,0.56436 0.097152,0.84484 -0.063244,0.2766 0.020864,0.25505 -0.3674194,0.51674 -0.029294,0.0198 -0.074569,0.0558 -0.1188558,0.0852 -2.778e-4,10e-4 -2.258e-4,0.002 -5.159e-4,0.003 0.034215,0.35977 0.1816614,0.73165 -0.085783,1.08572 0.062212,0.016 0.1230278,0.0326 0.1782837,0.0507 0.8084258,0.265 0.6621803,0.25102 1.02681069,0.58548 0.0117871,0.10832 0.10066339,0.21068 0.12143961,0.31909 0.0483541,0.25231 -0.0874673,0.50426 -0.2144572,0.75411 57.8368364,0.55551 283.0940944,0.71157 284.7360944,0.6145 1.8899,-0.11173 1.1338,-16.87026 1.1338,-16.87026 z m -294.821284,2.56966 c 0,0 -0.0069,0.0328 -0.0072,0.0344 0.017605,-0.007 0.033797,-0.0141 0.051676,-0.0211 -0.014666,-0.004 -0.029788,-0.009 -0.044441,-0.0132 z m -0.236678,1.07258 c -0.0033,0.0147 -0.0075,0.032 -0.01085,0.0471 0.02051,0.0254 0.03585,0.0527 0.06873,0.0744 -0.01126,-0.0547 -0.03151,-0.0935 -0.05788,-0.12144 z m 8.5457312,4.15777 c -0.00342,0.0344 -0.00489,0.0617 0.0062,0.0407 0.0061,-0.0116 0.00143,-0.0258 -0.0062,-0.0407 z m -0.9394775,6.60827 c -0.00971,0.003 -0.017615,0.0143 -0.00672,0.0176 0.045964,0.0136 0.09465,0.0263 0.1441772,0.0388 -0.041753,-0.019 -0.083453,-0.038 -0.1276408,-0.0564 -0.00298,-10e-4 -0.00658,-10e-4 -0.00982,0 z m -2.1802286,1.73857 c -0.108729,0.0232 -0.2179551,0.0463 -0.328662,0.0669 0.089031,10e-4 0.2069526,0.002 0.2971392,0.003 0.00953,-0.0233 0.020492,-0.0466 0.031523,-0.07 z"
       inkscape:connector-curvature="0" />
    <path
       transform="matrix(0.95961895,0.28130317,-0.57252624,1.953078,124.20565,-228.72165)"
       d="m 114.92589,207.96584 a 0.56794769,0.56794775 0 0 1 -0.56419,0.56793 0.56794769,0.56794775 0 0 1 -0.57166,-0.56043 0.56794769,0.56794775 0 0 1 0.55664,-0.57534 0.56794769,0.56794775 0 0 1 0.57901,0.55282"
       sodipodi:open="true"
       sodipodi:end="6.2567436"
       sodipodi:start="0"
       sodipodi:ry="0.56794775"
       sodipodi:rx="0.56794769"
       sodipodi:cy="207.96584"
       sodipodi:cx="114.35794"
       sodipodi:type="arc"
       id="path5276"
       style="opacity:0.87000002;fill:#0000ff;fill-opacity:1;stroke:none;stroke-width:0.21982148;stroke-miterlimit:4;stroke-dasharray:none;stroke-opacity:1;filter:url(#filter5272)" />
    <path
       style="opacity:0.87000002;fill:#0000ff;fill-opacity:1;stroke:none;stroke-width:0.21982148;stroke-miterlimit:4;stroke-dasharray:none;stroke-opacity:1;filter:url(#filter6862)"
       id="path5278"
       sodipodi:type="arc"
       sodipodi:cx="114.35794"
       sodipodi:cy="207.96584"
       sodipodi:rx="0.56794769"
       sodipodi:ry="0.56794775"
       sodipodi:start="0"
       sodipodi:end="6.2567436"
       sodipodi:open="true"
       d="m 114.92589,207.96584 a 0.56794769,0.56794775 0 0 1 -0.56419,0.56793 0.56794769,0.56794775 0 0 1 -0.57166,-0.56043 0.56794769,0.56794775 0 0 1 0.55664,-0.57534 0.56794769,0.56794775 0 0 1 0.57901,0.55282"
       transform="matrix(0.95961895,0.28130317,-0.57252624,1.953078,124.31856,-232.10079)" />
    <path
       style="fill:none;stroke:none;stroke-width:0.26458332px;stroke-linecap:butt;stroke-linejoin:miter;stroke-opacity:1"
       d="m 118.59003,223.24739 c 0.51972,0.0472 4.15774,-1.88988 4.20498,-2.26785 0.0472,-0.37798 0.23624,-3.44904 0.23624,-3.68527 0,-0.23624 2.3151,-1.22842 2.3151,-1.22842 l 3.44904,5.4334 c 0,0 0.0945,2.88207 -0.51972,3.3073 -0.61421,0.42522 -2.22061,1.84263 -3.40179,1.79538 -1.18117,-0.0472 -4.06324,-1.08668 -4.6302,-1.74814 -0.56697,-0.66146 -1.65365,-1.6064 -1.65365,-1.6064 z"
       id="path6190"
       inkscape:connector-curvature="0" />
    <path
       style="fill:url(#linearGradient6244);fill-opacity:1;stroke:none;stroke-width:0.26458332px;stroke-linecap:butt;stroke-linejoin:miter;stroke-opacity:1;filter:url(#filter6234)"
       d="m 115.77988,219.55138 c -1.85346,0.93294 -1.34122,-4.47761 -0.60136,-6.01357 0.0668,-0.33408 1.40317,-4.94448 1.40317,-4.94448 -2.14415,0.47349 -4.75803,-0.59641 -5.7463,3.67496 -2.3276,4.06349 -1.07924,5.81314 -0.53454,8.01808 l 7.41673,4.07586 z"
       id="path6192"
       inkscape:connector-curvature="0"
       sodipodi:nodetypes="ccccccc"
       transform="matrix(0.70957369,0,0,1.382855,32.709921,-78.702845)" />
    <path
       transform="matrix(0.96454267,0.26392696,-0.56195129,2.0536969,122.98858,-251.09543)"
       d="m 114.25772,202.11931 a 0.3674956,0.4009043 0 0 1 -0.36506,0.40089 0.3674956,0.4009043 0 0 1 -0.3699,-0.39559 0.3674956,0.4009043 0 0 1 0.36018,-0.40613 0.3674956,0.4009043 0 0 1 0.37466,0.39023"
       sodipodi:open="true"
       sodipodi:end="6.2567436"
       sodipodi:start="0"
       sodipodi:ry="0.4009043"
       sodipodi:rx="0.3674956"
       sodipodi:cy="202.11931"
       sodipodi:cx="113.89023"
       sodipodi:type="arc"
       id="path6866"
       style="opacity:0.87000002;fill:#0e0ec4;fill-opacity:1;stroke:none;stroke-width:0.26499999;stroke-miterlimit:4;stroke-dasharray:none;stroke-opacity:1;filter:url(#filter7048)" />
    <path
       style="opacity:1;fill:#ffffff;stroke:none;stroke-width:0.26458332px;stroke-linecap:butt;stroke-linejoin:miter;stroke-opacity:1;filter:url(#filter7329)"
       d="m 191.25595,242.9494 c 0.56696,-2.64583 28.91518,-18.33184 28.91518,-18.33184 l 19.27678,1.32291 10.96131,6.80358 -10.96131,-1.88989 -8.50446,-2.83482 -7.37054,1.13393 -13.04017,4.7247 -18.52084,10.20536 -2.64583,4.15774 z"
       id="path7237"
       inkscape:connector-curvature="0"
       transform="matrix(1,0,0,1.3923751,-0.56696429,-95.513724)" />
    <path
       inkscape:connector-curvature="0"
       id="path7283"
       d="m 134.74851,275.07737 c 0.56696,-2.64583 28.91518,-18.33184 28.91518,-18.33184 l 19.27678,1.32291 10.96131,6.80358 -10.96131,-1.88989 -8.50446,-2.83482 -7.37054,1.13393 -13.04017,4.7247 -18.52084,10.20536 -2.64583,4.15774 z"
       style="fill:#ffffff;stroke:none;stroke-width:0.26458332px;stroke-linecap:butt;stroke-linejoin:miter;stroke-opacity:1;filter:url(#filter7461)"
       transform="matrix(0.429946,-0.37109637,-0.18137294,-0.60661127,5.8043861,481.44362)" />
    <path
       style="fill:#ffffff;stroke:none;stroke-width:0.26458332px;stroke-linecap:butt;stroke-linejoin:miter;stroke-opacity:1;filter:url(#filter7509)"
       d="m 153.27681,270.21741 c 0.56696,-2.64583 28.91518,-18.33184 28.91518,-18.33184 l 19.27678,1.32291 10.96131,6.80358 -10.96131,-1.88989 -8.50446,-2.83482 -7.37054,1.13393 -13.04017,4.7247 -18.52084,10.20536 -2.64583,4.15774 z"
       id="path7285"
       inkscape:connector-curvature="0"
       transform="matrix(0.98915544,-0.38694522,-0.3506559,-0.62096965,70.27217,501.08799)" />
    <path
       style="fill:#ffffff;stroke:none;stroke-width:0.26458332px;stroke-linecap:butt;stroke-linejoin:miter;stroke-opacity:1;filter:url(#filter7385)"
       d="m 19.352926,260.19183 c 0.56696,-2.64583 28.91518,-18.33184 28.91518,-18.33184 l 19.27678,1.32291 10.96131,6.80358 -10.96131,-1.88989 -8.50446,-2.83482 -7.37054,1.13393 -13.04017,4.7247 -18.52084,10.20536 -2.64583,4.15774 z"
       id="path7287"
       inkscape:connector-curvature="0"
       transform="matrix(1.2520878,0,0,2.5137563,-39.949068,-399.73917)" />
    <path
       style="fill:#ffffff;fill-opacity:1;stroke:#ffffff;stroke-width:0.07022518px;stroke-linecap:butt;stroke-linejoin:miter;stroke-opacity:1"
       d="m 212.87962,191.37616 c 0.75505,-0.3603 1.43713,-0.56663 1.58297,0.35843 l 0.30888,0.94494 c -0.34325,0.3259 0.8266,0.11493 1.04245,0.81461 0.15072,0.48857 1.46715,0.30006 1.73741,-0.48877 -0.95911,-1.33015 0.89851,-4.06078 1.19248,-3.78166 0.54595,0.37895 1.12309,1.08712 1.47156,-0.61722 0.50393,0.18294 1.51299,-0.0604 0.27026,1.59663 -0.44585,0.43625 1.04676,1.74942 0,1.23821 -1.10404,-0.53919 -2.47842,1.46027 -1.62159,1.8573 -0.60027,0.25688 -1.48866,0.34355 -1.11967,1.17304 0,0 -0.57913,0.6191 -0.8494,0.71685 -0.27026,0.0978 -1.42854,0.19551 -1.50576,0.0326 -0.40617,0.27333 -2.22912,0.0982 -1.35131,-1.62923 0.17811,-0.35051 -0.96232,-0.75033 -0.96232,-0.75033 -0.71644,-0.13723 -1.42603,-0.3265 -2.24225,0.29416 -0.23832,-0.12875 -0.41745,-0.65718 -0.8494,0.52134 0.0111,-0.46666 -1.36716,-0.98023 0.96523,-1.36854 0.61582,0.0461 1.21591,0.29134 1.93046,-0.91236 z"
       id="path7513"
       inkscape:connector-curvature="0"
       sodipodi:nodetypes="cccsccccsccccsccccc" />
    <path
       sodipodi:nodetypes="cccsccccsccccscccccc"
       inkscape:connector-curvature="0"
       id="path7515"
       d="m 243.86343,191.97514 c 1.40758,-2.29783 2.72448,-4.30902 3.37503,-4.21375 l 0.99167,-0.34798 c -0.57819,1.13247 1.73489,-2.23949 2.44284,-2.46136 0.49436,-0.15489 3.11587,-3.92287 3.36848,-5.103 -2.46861,1.94986 0.29235,-4.70296 1.00004,-5.37028 1.26121,-1.3149 2.71157,-2.53821 2.77567,-4.43233 1.10063,-1.3041 3.07245,-4.24586 1.16076,0.1128 -0.7461,1.47798 2.80755,-1.96671 0.47137,0.67109 -2.46401,2.78213 -4.51465,7.69301 -2.61052,5.52223 -1.1303,1.81077 -2.91484,4.3316 -1.84416,3.75368 0,0 1.17536,3.99566 0.65962,4.80125 -0.51568,0.8056 -3.01162,3.40148 -3.23165,3.52818 -0.72692,1.2792 -6.48425,4.89558 -5.34595,1.51495 0.23097,-0.68595 -2.25445,2.27306 -2.25445,2.27306 -1.51799,1.92068 -3.0418,3.79403 -4.47541,6.40333 -0.53659,0.59383 -1.10424,0.80627 -1.53931,2.64786 -0.15496,-0.28383 -3.82392,0.77336 0.80007,-5.93201 1.27743,-1.68988 3.25222,-0.72557 4.25587,-3.36775 z"
       style="fill:#ffffff;fill-opacity:1;stroke:#ffffff;stroke-width:0.10342343px;stroke-linecap:butt;stroke-linejoin:miter;stroke-opacity:1" />
    <path
       style="fill:#ffffff;fill-opacity:1;stroke:#ffffff;stroke-width:0.07255834px;stroke-linecap:butt;stroke-linejoin:miter;stroke-opacity:1"
       d="m 227.27426,194.03753 c 0.67818,0.60647 1.18821,1.20417 0.4626,1.73749 l -0.6633,0.70515 c -0.44791,-0.20787 0.30378,0.87706 -0.19363,1.38628 -0.34733,0.35558 0.45644,1.59691 1.26748,1.53788 0.67822,-1.51841 3.93498,-0.79801 3.83783,-0.38642 -0.0603,0.70608 -0.38903,1.58119 1.24856,1.21753 0.088,0.58191 0.78918,1.49207 -1.24336,0.93909 -0.59294,-0.26459 -0.99659,1.78175 -1.06635,0.51809 -0.0736,-1.33282 -2.4652,-1.87452 -2.38964,-0.84912 -0.5137,-0.49449 -1.02121,-1.34917 -1.55578,-0.63205 0,0 -0.81536,-0.32175 -1.03123,-0.55189 -0.21587,-0.23014 -0.86442,-1.35083 -0.76173,-1.49644 -0.4333,-0.29297 -1.17066,-2.19443 0.7447,-2.03689 0.38865,0.032 0.17731,-1.27903 0.17731,-1.27903 -0.23089,-0.7759 -0.41362,-1.56673 -1.34584,-2.12559 -0.005,-0.29287 0.36257,-0.69362 -0.86285,-0.6337 0.40731,-0.1841 0.17805,-1.78122 1.6489,0.39538 0.26039,0.63686 0.34154,1.3413 1.72634,1.55424 z"
       id="path7517"
       inkscape:connector-curvature="0"
       sodipodi:nodetypes="cccsccccsccccsccccc" />
    <path
       style="fill:#ffffff;fill-opacity:1;stroke:none;stroke-width:0.26458332px;stroke-linecap:butt;stroke-linejoin:miter;stroke-opacity:1;filter:url(#filter7525)"
       d="m 265.31586,135.58344 c -2.81698,2.77046 -4.79305,5.01407 -3.98817,5.51534 -0.52454,0.8963 3.11632,3.74814 4.12529,3.1611 0.3691,-0.34259 4.84252,-1.73419 5.70928,-0.14889 1.89828,-0.71935 3.9184,1.92 1.81078,4.00657 1.19845,1.3058 1.58364,3.76266 -0.11407,3.72209 -0.33252,3.15731 -4.07964,4.67018 -3.71632,2.98556 0.27747,-1.28657 0.89918,-2.88237 1.49634,-3.97239 0.59716,-1.09002 0.50175,-2.82979 -0.0233,-3.23211 -0.52504,-0.40232 -2.48006,-1.42423 -3.15999,-1.46905 -0.67993,-0.0448 -2.8522,-0.16177 -3.22723,-0.44915 -0.37502,-0.28737 -3.57984,-1.07648 -3.81262,-2.32628 -0.23277,-1.24979 0.2865,-3.9471 0.97619,-4.84716 0.6897,-0.90006 3.92381,-2.94563 3.92381,-2.94563 z"
       id="path7519"
       inkscape:connector-curvature="0"
       sodipodi:nodetypes="ccccccsssssssc"
       transform="matrix(-0.34563203,0.9794789,-0.64277993,-0.52667991,459.22971,3.4362688)" />
    <path
       sodipodi:nodetypes="ccccccsssssssc"
       inkscape:connector-curvature="0"
       id="path7529"
       d="m 240.18045,158.54549 c -2.81698,2.77046 -4.79305,5.01407 -3.98817,5.51534 -0.52454,0.8963 3.11632,3.74814 4.12529,3.1611 0.3691,-0.34259 4.84252,-1.73419 5.70928,-0.14889 1.89828,-0.71935 3.9184,1.92 1.81078,4.00657 1.19845,1.3058 1.58364,3.76266 -0.11407,3.72209 -0.33252,3.15731 -4.07964,4.67018 -3.71632,2.98556 0.27747,-1.28657 0.89918,-2.88237 1.49634,-3.97239 0.59716,-1.09002 0.50175,-2.82979 -0.0233,-3.23211 -0.52504,-0.40232 -2.48006,-1.42423 -3.15999,-1.46905 -0.67993,-0.0448 -2.8522,-0.16177 -3.22723,-0.44915 -0.37502,-0.28737 -3.57984,-1.07648 -3.81262,-2.32628 -0.23277,-1.24979 0.2865,-3.9471 0.97619,-4.84716 0.6897,-0.90006 3.92381,-2.94563 3.92381,-2.94563 z"
       style="fill:#ffffff;fill-opacity:1;stroke:none;stroke-width:0.26458332px;stroke-linecap:butt;stroke-linejoin:miter;stroke-opacity:1;filter:url(#filter7525)" />
    <path
       style="fill:#ffffff;fill-opacity:1;stroke:none;stroke-width:0.26458332px;stroke-linecap:butt;stroke-linejoin:miter;stroke-opacity:1;filter:url(#filter7525)"
       d="m 227.42375,166.3885 c -2.81698,2.77046 -4.79305,5.01407 -3.98817,5.51534 -0.52454,0.8963 3.11632,3.74814 4.12529,3.1611 0.3691,-0.34259 4.84252,-1.73419 5.70928,-0.14889 1.89828,-0.71935 3.9184,1.92 1.81078,4.00657 1.19845,1.3058 1.58364,3.76266 -0.11407,3.72209 -0.33252,3.15731 -4.07964,4.67018 -3.71632,2.98556 0.27747,-1.28657 0.89918,-2.88237 1.49634,-3.97239 0.59716,-1.09002 0.50175,-2.82979 -0.0233,-3.23211 -0.52504,-0.40232 -2.48006,-1.42423 -3.15999,-1.46905 -0.67993,-0.0448 -2.8522,-0.16177 -3.22723,-0.44915 -0.37502,-0.28737 -3.57984,-1.07648 -3.81262,-2.32628 -0.23277,-1.24979 0.2865,-3.9471 0.97619,-4.84716 0.6897,-0.90006 3.92381,-2.94563 3.92381,-2.94563 z"
       id="path7531"
       inkscape:connector-curvature="0"
       sodipodi:nodetypes="ccccccsssssssc"
       transform="matrix(-0.28603232,1.0970545,0.51645529,0.75077563,236.93548,-204.37024)" />
    <path
       style="fill:#a1a1ff;fill-opacity:1;stroke:none;stroke-width:0.26458332px;stroke-linecap:butt;stroke-linejoin:miter;stroke-opacity:1;filter:url(#filter7909)"
       d="m 174.17796,234.03656 c 1.51191,4.15774 -4.89527,17.11094 0,0 2.17483,-0.098 4.29829,-3.59578 14.74107,-5.29167 2.4325,-0.39503 7.25686,-8.37711 11.33928,-9.63839 2.77577,-0.85758 1.47154,7.10741 -1.6226,6.33388 0.68023,1.70056 -4.24736,5.54401 -6.1259,4.81641 -1.13393,1.13393 2.45684,0.56697 -4.72471,1.7009 -7.18154,1.13392 -6.42559,2.07887 -6.42559,2.07887 l -3.77976,2.83482 c 0,0 -2.25923,0.66335 -1.88988,1.32292 5.40347,9.6495 -12.88878,16.46383 -13.94157,12.09984 l 5.34539,-8.55262 c -2.53625,-1.97004 6.24305,-5.38764 7.08427,-7.70496 z"
       id="path7875"
       inkscape:connector-curvature="0"
       sodipodi:nodetypes="ccsscccccsccc" />
    <path
       style="fill:#ffffff;fill-opacity:1;stroke:none;stroke-width:0.26458332px;stroke-linecap:butt;stroke-linejoin:miter;stroke-opacity:1;filter:url(#filter7525)"
       d="m 240.18045,158.54549 c -2.81698,2.77046 -4.79305,5.01407 -3.98817,5.51534 -0.52454,0.8963 3.11632,3.74814 4.12529,3.1611 0.3691,-0.34259 4.84252,-1.73419 5.70928,-0.14889 1.89828,-0.71935 3.9184,1.92 1.81078,4.00657 1.19845,1.3058 1.58364,3.76266 -0.11407,3.72209 -0.33252,3.15731 -4.07964,4.67018 -3.71632,2.98556 0.27747,-1.28657 0.89918,-2.88237 1.49634,-3.97239 0.59716,-1.09002 0.50175,-2.82979 -0.0233,-3.23211 -0.52504,-0.40232 -2.48006,-1.42423 -3.15999,-1.46905 -0.67993,-0.0448 -2.8522,-0.16177 -3.22723,-0.44915 -0.37502,-0.28737 -3.57984,-1.07648 -3.81262,-2.32628 -0.23277,-1.24979 0.2865,-3.9471 0.97619,-4.84716 0.6897,-0.90006 3.92381,-2.94563 3.92381,-2.94563 z"
       id="path7913"
       inkscape:connector-curvature="0"
       sodipodi:nodetypes="ccccccsssssssc" />
    <path
       sodipodi:nodetypes="ccccccsssssssc"
       inkscape:connector-curvature="0"
       id="path7915"
       d="m 52.508557,200.74089 c -2.81698,2.77046 -4.79305,5.01407 -3.98817,5.51534 -0.52454,0.8963 3.11632,3.74814 4.12529,3.1611 0.3691,-0.34259 4.84252,-1.73419 5.70928,-0.14889 1.89828,-0.71935 3.9184,1.92 1.81078,4.00657 1.19845,1.3058 1.58364,3.76266 -0.11407,3.72209 -0.33252,3.15731 -4.07964,4.67018 -3.71632,2.98556 0.27747,-1.28657 0.89918,-2.88237 1.49634,-3.97239 0.59716,-1.09002 0.50175,-2.82979 -0.0233,-3.23211 -0.52504,-0.40232 -2.48006,-1.42423 -3.15999,-1.46905 -0.67993,-0.0448 -2.8522,-0.16177 -3.22723,-0.44915 -0.37502,-0.28737 -3.57984,-1.07648 -3.81262,-2.32628 -0.23277,-1.24979 0.2865,-3.9471 0.97619,-4.84716 0.6897,-0.90006 3.92381,-2.94563 3.92381,-2.94563 z"
       style="fill:#ffffff;fill-opacity:1;stroke:none;stroke-width:0.26458332px;stroke-linecap:butt;stroke-linejoin:miter;stroke-opacity:1;filter:url(#filter7525)"
       transform="matrix(1.0434777,0.78775115,-0.38082032,0.50444547,90.446011,82.212999)" />
    <path
       transform="matrix(0.50890382,-1.2043316,0.58220659,0.24601795,-138.73128,216.92182)"
       style="fill:#ffffff;fill-opacity:1;stroke:none;stroke-width:0.26458332px;stroke-linecap:butt;stroke-linejoin:miter;stroke-opacity:1;filter:url(#filter7525)"
       d="m 52.508557,200.74089 c -2.81698,2.77046 -4.79305,5.01407 -3.98817,5.51534 -0.52454,0.8963 3.11632,3.74814 4.12529,3.1611 0.3691,-0.34259 4.84252,-1.73419 5.70928,-0.14889 1.89828,-0.71935 3.9184,1.92 1.81078,4.00657 1.19845,1.3058 1.58364,3.76266 -0.11407,3.72209 -0.33252,3.15731 -4.07964,4.67018 -3.71632,2.98556 0.27747,-1.28657 0.89918,-2.88237 1.49634,-3.97239 0.59716,-1.09002 0.50175,-2.82979 -0.0233,-3.23211 -0.52504,-0.40232 -2.48006,-1.42423 -3.15999,-1.46905 -0.67993,-0.0448 -2.8522,-0.16177 -3.22723,-0.44915 -0.37502,-0.28737 -3.57984,-1.07648 -3.81262,-2.32628 -0.23277,-1.24979 0.2865,-3.9471 0.97619,-4.84716 0.6897,-0.90006 3.92381,-2.94563 3.92381,-2.94563 z"
       id="path7917"
       inkscape:connector-curvature="0"
       sodipodi:nodetypes="ccccccsssssssc" />
  </g>
</svg>
